<?xml version="1.0" encoding="iso-8859-1"?>
<!-- Generator: Adobe Illustrator 16.0.0, SVG Export Plug-In . SVG Version: 6.00 Build 0)  -->
<!DOCTYPE svg PUBLIC "-//W3C//DTD SVG 1.1//EN" "http://www.w3.org/Graphics/SVG/1.1/DTD/svg11.dtd">
<svg version="1.1" id="Layer_1" xmlns:xl="http://www.w3.org/1999/xlink" xmlns:dc="http://purl.org/dc/elements/1.1/"
	 xmlns="http://www.w3.org/2000/svg" xmlns:xlink="http://www.w3.org/1999/xlink" x="0px" y="0px" width="1668px" height="1124.5px"
	 viewBox="104 0 1668 1124.5" style="enable-background:new 104 0 1668 1124.5;" xml:space="preserve">
<title>Canvas 1</title>
<title>Layer 1</title>
<g>
	<defs>
		<rect id="SVGID_1_" x="148.371" y="14.25" width="1603" height="1096"/>
	</defs>
	<clipPath id="SVGID_2_">
		<use xlink:href="#SVGID_1_"  style="overflow:visible;"/>
	</clipPath>
	<path style="clip-path:url(#SVGID_2_);fill:#FFFFFF;" d="M712.745,18.087c3.783,3.784,3.783,9.918,0,13.702
		c-3.784,3.784-9.919,3.784-13.702,0c-3.784-3.784-3.784-9.918,0-13.702C702.826,14.303,708.96,14.303,712.745,18.087"/>
	
		<path style="clip-path:url(#SVGID_2_);fill:none;stroke:#FFFFFF;stroke-linecap:round;stroke-linejoin:round;stroke-miterlimit:10;" d="
		M712.745,18.087c3.783,3.784,3.783,9.918,0,13.702c-3.784,3.784-9.919,3.784-13.702,0c-3.784-3.784-3.784-9.918,0-13.702
		C702.826,14.304,708.96,14.304,712.745,18.087"/>
	<path style="clip-path:url(#SVGID_2_);fill:#FFFFFF;" d="M694.704,74.15c5.032,5.032,5.032,13.192,0,18.225
		c-5.033,5.032-13.192,5.032-18.226,0c-5.033-5.033-5.033-13.193,0-18.225C681.511,69.118,689.67,69.118,694.704,74.15"/>
	
		<path style="clip-path:url(#SVGID_2_);fill:none;stroke:#FFFFFF;stroke-linecap:round;stroke-linejoin:round;stroke-miterlimit:10;" d="
		M694.704,74.15c5.032,5.033,5.032,13.192,0,18.226c-5.033,5.032-13.192,5.032-18.226,0c-5.033-5.033-5.033-13.192,0-18.226
		C681.511,69.117,689.67,69.117,694.704,74.15"/>
	<path style="clip-path:url(#SVGID_2_);fill:#FFFFFF;" d="M738.979,97.087c3.784,3.784,3.784,9.918,0,13.702
		c-3.783,3.784-9.918,3.784-13.702,0c-3.783-3.784-3.783-9.918,0-13.702C729.061,93.304,735.196,93.304,738.979,97.087"/>
	
		<path style="clip-path:url(#SVGID_2_);fill:none;stroke:#FFFFFF;stroke-linecap:round;stroke-linejoin:round;stroke-miterlimit:10;" d="
		M738.979,97.087c3.784,3.784,3.784,9.918,0,13.702c-3.783,3.784-9.918,3.784-13.702,0c-3.783-3.784-3.783-9.918,0-13.702
		C729.061,93.304,735.196,93.304,738.979,97.087"/>
	<path style="clip-path:url(#SVGID_2_);fill:#FFFFFF;" d="M895.859,17.676c3.236,3.235,3.236,8.481,0,11.717
		c-3.234,3.235-8.48,3.235-11.717,0c-3.234-3.236-3.234-8.482,0-11.717C887.379,14.44,892.625,14.44,895.859,17.676"/>
	
		<path style="clip-path:url(#SVGID_2_);fill:none;stroke:#FFFFFF;stroke-linecap:round;stroke-linejoin:round;stroke-miterlimit:10;" d="
		M895.859,17.676c3.236,3.235,3.236,8.481,0,11.717c-3.234,3.235-8.48,3.235-11.717,0c-3.234-3.235-3.234-8.481,0-11.717
		C887.379,14.441,892.625,14.441,895.859,17.676"/>
	<path style="clip-path:url(#SVGID_2_);fill:#FFFFFF;" d="M975.514,99.483c3.236,3.236,3.236,8.482,0,11.717
		c-3.234,3.235-8.48,3.235-11.717,0c-3.234-3.235-3.234-8.481,0-11.717C967.033,96.249,972.279,96.249,975.514,99.483"/>
	
		<path style="clip-path:url(#SVGID_2_);fill:none;stroke:#FFFFFF;stroke-linecap:round;stroke-linejoin:round;stroke-miterlimit:10;" d="
		M975.514,99.484c3.236,3.235,3.236,8.481,0,11.717c-3.234,3.235-8.48,3.235-11.717,0c-3.234-3.236-3.234-8.481,0-11.717
		C967.033,96.248,972.279,96.248,975.514,99.484"/>
	<path style="clip-path:url(#SVGID_2_);fill:#FFFFFF;" d="M860.514,70.509c3.236,3.235,3.236,8.481,0,11.717
		c-3.234,3.235-8.48,3.235-11.717,0c-3.234-3.236-3.234-8.482,0-11.717C852.033,67.273,857.279,67.273,860.514,70.509"/>
	
		<path style="clip-path:url(#SVGID_2_);fill:none;stroke:#FFFFFF;stroke-linecap:round;stroke-linejoin:round;stroke-miterlimit:10;" d="
		M860.514,70.509c3.236,3.235,3.236,8.481,0,11.717c-3.234,3.236-8.48,3.236-11.717,0c-3.234-3.235-3.234-8.481,0-11.717
		C852.033,67.274,857.279,67.274,860.514,70.509"/>
	<path style="clip-path:url(#SVGID_2_);fill:#FFFFFF;" d="M693.05,659.455c4.272,4.273,4.272,11.201,0,15.475
		c-4.273,4.271-11.201,4.271-15.475,0c-4.273-4.273-4.273-11.201,0-15.475S688.777,655.182,693.05,659.455"/>
	
		<path style="clip-path:url(#SVGID_2_);fill:none;stroke:#FFFFFF;stroke-linecap:round;stroke-linejoin:round;stroke-miterlimit:10;" d="
		M693.05,659.455c4.272,4.273,4.272,11.201,0,15.475c-4.273,4.271-11.201,4.271-15.475,0c-4.273-4.273-4.273-11.201,0-15.475
		S688.777,655.182,693.05,659.455"/>
	<path style="clip-path:url(#SVGID_2_);fill:#FFFFFF;" d="M768.977,612.643c5.858,5.859,5.858,15.355,0,21.213
		c-5.857,5.859-15.355,5.859-21.213,0c-5.858-5.857-5.858-15.354,0-21.213C753.622,606.785,763.12,606.785,768.977,612.643"/>
	
		<path style="clip-path:url(#SVGID_2_);fill:none;stroke:#FFFFFF;stroke-linecap:round;stroke-linejoin:round;stroke-miterlimit:10;" d="
		M768.977,612.643c5.858,5.859,5.858,15.355,0,21.213c-5.857,5.859-15.355,5.859-21.213,0c-5.858-5.857-5.858-15.354,0-21.213
		C753.622,606.785,763.12,606.785,768.977,612.643"/>
	<path style="clip-path:url(#SVGID_2_);fill:#FFFFFF;" d="M789.243,708.57c4.273,4.273,4.273,11.201,0,15.475
		c-4.272,4.273-11.201,4.273-15.474,0c-4.273-4.273-4.273-11.201,0-15.475C778.042,704.297,784.97,704.297,789.243,708.57"/>
	
		<path style="clip-path:url(#SVGID_2_);fill:none;stroke:#FFFFFF;stroke-linecap:round;stroke-linejoin:round;stroke-miterlimit:10;" d="
		M789.243,708.57c4.273,4.273,4.273,11.201,0,15.475c-4.272,4.273-11.201,4.273-15.474,0c-4.273-4.273-4.273-11.201,0-15.475
		C778.042,704.297,784.97,704.297,789.243,708.57"/>
	<path style="clip-path:url(#SVGID_2_);fill:#FFFFFF;" d="M854.166,667.721c4.273,4.273,4.273,11.201,0,15.475
		s-11.201,4.273-15.475,0s-4.273-11.201,0-15.475S849.893,663.447,854.166,667.721"/>
	
		<path style="clip-path:url(#SVGID_2_);fill:none;stroke:#FFFFFF;stroke-linecap:round;stroke-linejoin:round;stroke-miterlimit:10;" d="
		M854.166,667.721c4.273,4.273,4.273,11.201,0,15.475s-11.201,4.273-15.475,0s-4.273-11.201,0-15.475
		S849.893,663.447,854.166,667.721"/>
	<path style="clip-path:url(#SVGID_2_);fill:#FFFFFF;" d="M882.977,513.643c5.859,5.858,5.859,15.355,0,21.213
		c-5.857,5.858-15.355,5.858-21.213,0s-5.857-15.355,0-21.213S877.119,507.785,882.977,513.643"/>
	
		<path style="clip-path:url(#SVGID_2_);fill:none;stroke:#FFFFFF;stroke-linecap:round;stroke-linejoin:round;stroke-miterlimit:10;" d="
		M882.977,513.643c5.859,5.858,5.859,15.355,0,21.213c-5.857,5.858-15.355,5.858-21.213,0s-5.857-15.355,0-21.213
		S877.119,507.785,882.977,513.643"/>
	<path style="clip-path:url(#SVGID_2_);fill:#FFFFFF;" d="M910.879,1090.854c4.184,4.184,4.184,10.967,0,15.152
		c-4.184,4.184-10.969,4.184-15.152,0c-4.184-4.186-4.184-10.969,0-15.152C899.91,1086.668,906.695,1086.668,910.879,1090.854"/>
	
		<path style="clip-path:url(#SVGID_2_);fill:none;stroke:#FFFFFF;stroke-linecap:round;stroke-linejoin:round;stroke-miterlimit:10;" d="
		M910.879,1090.854c4.184,4.184,4.184,10.969,0,15.152s-10.969,4.184-15.152,0s-4.184-10.969,0-15.152
		C899.91,1086.668,906.695,1086.668,910.879,1090.854"/>
	<path style="clip-path:url(#SVGID_2_);fill:#FFFFFF;" d="M870.164,997.281c4.184,4.184,4.184,10.969,0,15.152
		s-10.969,4.184-15.152,0s-4.184-10.969,0-15.152S865.98,993.098,870.164,997.281"/>
	
		<path style="clip-path:url(#SVGID_2_);fill:none;stroke:#FFFFFF;stroke-linecap:round;stroke-linejoin:round;stroke-miterlimit:10;" d="
		M870.164,997.281c4.184,4.184,4.184,10.969,0,15.152s-10.969,4.184-15.152,0s-4.184-10.969,0-15.152
		S865.98,993.098,870.164,997.281"/>
	<path style="clip-path:url(#SVGID_2_);fill:#FFFFFF;" d="M950.338,1023.537c5.857,5.857,5.857,15.355,0,21.213
		s-15.355,5.857-21.213,0c-5.859-5.857-5.859-15.355,0-21.213C934.982,1017.68,944.48,1017.68,950.338,1023.537"/>
	
		<path style="clip-path:url(#SVGID_2_);fill:none;stroke:#FFFFFF;stroke-linecap:round;stroke-linejoin:round;stroke-miterlimit:10;" d="
		M950.338,1023.537c5.857,5.857,5.857,15.355,0,21.213s-15.355,5.857-21.213,0c-5.859-5.857-5.859-15.355,0-21.213
		C934.982,1017.678,944.48,1017.678,950.338,1023.537"/>
	<path style="clip-path:url(#SVGID_2_);fill:#FFFFFF;" d="M1011.594,1000.854c4.184,4.184,4.184,10.967,0,15.152
		c-4.186,4.184-10.969,4.184-15.152,0c-4.186-4.186-4.186-10.969,0-15.152C1000.625,996.668,1007.408,996.668,1011.594,1000.854"/>
	
		<path style="clip-path:url(#SVGID_2_);fill:none;stroke:#FFFFFF;stroke-linecap:round;stroke-linejoin:round;stroke-miterlimit:10;" d="
		M1011.592,1000.854c4.186,4.184,4.186,10.969,0,15.152c-4.184,4.184-10.967,4.184-15.15,0c-4.186-4.184-4.186-10.969,0-15.152
		C1000.625,996.668,1007.408,996.668,1011.592,1000.854"/>
	<path style="clip-path:url(#SVGID_2_);fill:#FFFFFF;" d="M1111.277,827.875c4.367,4.367,4.367,11.445,0,15.812
		s-11.447,4.367-15.812,0c-4.367-4.367-4.367-11.445,0-15.812C1099.83,823.508,1106.91,823.508,1111.277,827.875"/>
	
		<path style="clip-path:url(#SVGID_2_);fill:none;stroke:#FFFFFF;stroke-linecap:round;stroke-linejoin:round;stroke-miterlimit:10;" d="
		M1111.277,827.875c4.367,4.367,4.367,11.445,0,15.812s-11.447,4.367-15.814,0c-4.365-4.367-4.365-11.445,0-15.812
		C1099.83,823.508,1106.91,823.508,1111.277,827.875"/>
	<path style="clip-path:url(#SVGID_2_);fill:#FFFFFF;" d="M1262.605,818.184c4.365,4.367,4.365,11.447,0,15.812
		c-4.367,4.367-11.447,4.367-15.814,0c-4.367-4.365-4.367-11.445,0-15.812S1258.238,813.816,1262.605,818.184"/>
	
		<path style="clip-path:url(#SVGID_2_);fill:none;stroke:#FFFFFF;stroke-linecap:round;stroke-linejoin:round;stroke-miterlimit:10;" d="
		M1262.605,818.184c4.365,4.367,4.365,11.447,0,15.812c-4.367,4.367-11.447,4.367-15.814,0c-4.367-4.365-4.367-11.445,0-15.812
		S1258.238,813.816,1262.605,818.184"/>
	<path style="clip-path:url(#SVGID_2_);fill:#FFFFFF;" d="M1239.096,721.564c4.367,4.367,4.367,11.447,0,15.814
		c-4.365,4.367-11.445,4.367-15.812,0s-4.367-11.447,0-15.814C1227.65,717.199,1234.73,717.199,1239.096,721.564"/>
	
		<path style="clip-path:url(#SVGID_2_);fill:none;stroke:#FFFFFF;stroke-linecap:round;stroke-linejoin:round;stroke-miterlimit:10;" d="
		M1239.096,721.566c4.367,4.365,4.367,11.445,0,15.812c-4.365,4.367-11.445,4.367-15.812,0s-4.367-11.447,0-15.812
		C1227.65,717.199,1234.73,717.199,1239.096,721.566"/>
	<path style="clip-path:url(#SVGID_2_);fill:#FFFFFF;" d="M1224.586,897.201c4.367,4.367,4.367,11.447,0,15.814
		s-11.445,4.367-15.812,0s-4.367-11.447,0-15.814C1213.141,892.836,1220.219,892.836,1224.586,897.201"/>
	
		<path style="clip-path:url(#SVGID_2_);fill:none;stroke:#FFFFFF;stroke-linecap:round;stroke-linejoin:round;stroke-miterlimit:10;" d="
		M1224.586,897.201c4.367,4.367,4.367,11.447,0,15.814s-11.445,4.367-15.812,0s-4.367-11.447,0-15.814
		C1213.141,892.836,1220.219,892.836,1224.586,897.201"/>
	<path style="clip-path:url(#SVGID_2_);fill:#FFFFFF;" d="M1195.795,799.684c5.859,5.857,5.859,15.355,0,21.213
		c-5.857,5.857-15.354,5.857-21.213,0c-5.857-5.857-5.857-15.355,0-21.213C1180.441,793.826,1189.938,793.826,1195.795,799.684"/>
	
		<path style="clip-path:url(#SVGID_2_);fill:none;stroke:#FFFFFF;stroke-linecap:round;stroke-linejoin:round;stroke-miterlimit:10;" d="
		M1195.795,799.684c5.859,5.857,5.859,15.355,0,21.213c-5.857,5.857-15.354,5.857-21.213,0c-5.857-5.857-5.857-15.355,0-21.213
		C1180.441,793.826,1189.938,793.826,1195.795,799.684"/>
	
		<line style="clip-path:url(#SVGID_2_);fill:none;stroke:#FFFFFF;stroke-width:3;stroke-linecap:round;stroke-linejoin:round;stroke-miterlimit:10;" x1="866.52" y1="510.434" x2="690.618" y2="95.132"/>
	<path style="clip-path:url(#SVGID_2_);fill:#FFFFFF;" d="M641.911,38.087c3.783,3.784,3.783,9.918,0,13.702
		c-3.784,3.784-9.919,3.784-13.702,0c-3.784-3.784-3.784-9.918,0-13.702C631.992,34.303,638.126,34.303,641.911,38.087"/>
	
		<path style="clip-path:url(#SVGID_2_);fill:none;stroke:#FFFFFF;stroke-linecap:round;stroke-linejoin:round;stroke-miterlimit:10;" d="
		M641.911,38.087c3.784,3.784,3.784,9.918,0,13.702s-9.919,3.784-13.702,0c-3.784-3.784-3.784-9.918,0-13.702
		C631.992,34.304,638.126,34.304,641.911,38.087"/>
	
		<line style="clip-path:url(#SVGID_2_);fill:none;stroke:#FFFFFF;stroke-width:3;stroke-linecap:round;stroke-linejoin:round;stroke-miterlimit:10;" x1="689.829" y1="71.089" x2="702.708" y2="34.091"/>
	
		<line style="clip-path:url(#SVGID_2_);fill:none;stroke:#FFFFFF;stroke-width:3;stroke-linecap:round;stroke-linejoin:round;stroke-miterlimit:10;" x1="642.78" y1="50.794" x2="675.322" y2="75.474"/>
	
		<line style="clip-path:url(#SVGID_2_);fill:none;stroke:#FFFFFF;stroke-width:3;stroke-linecap:round;stroke-linejoin:round;stroke-miterlimit:10;" x1="697.371" y1="88.497" x2="723.271" y2="100.003"/>
	<path style="clip-path:url(#SVGID_2_);fill:#FFFFFF;" d="M923.09,68.182c4.521,4.521,4.521,11.851,0,16.372
		c-4.52,4.522-11.852,4.522-16.371,0c-4.521-4.521-4.521-11.851,0-16.372C911.238,63.661,918.57,63.661,923.09,68.182"/>
	
		<path style="clip-path:url(#SVGID_2_);fill:none;stroke:#FFFFFF;stroke-linecap:round;stroke-linejoin:round;stroke-miterlimit:10;" d="
		M923.09,68.181c4.521,4.521,4.521,11.852,0,16.373c-4.52,4.521-11.852,4.521-16.371,0c-4.521-4.521-4.521-11.852,0-16.373
		C911.238,63.66,918.57,63.66,923.09,68.181"/>
	
		<line style="clip-path:url(#SVGID_2_);fill:none;stroke:#FFFFFF;stroke-width:3;stroke-linecap:round;stroke-linejoin:round;stroke-miterlimit:10;" x1="873.789" y1="509.316" x2="913.811" y2="87.894"/>
	
		<line style="clip-path:url(#SVGID_2_);fill:none;stroke:#FFFFFF;stroke-width:3;stroke-linecap:round;stroke-linejoin:round;stroke-miterlimit:10;" x1="909.967" y1="65.893" x2="893.535" y2="31.031"/>
	
		<line style="clip-path:url(#SVGID_2_);fill:none;stroke:#FFFFFF;stroke-width:3;stroke-linecap:round;stroke-linejoin:round;stroke-miterlimit:10;" x1="925.141" y1="81.784" x2="962.33" y2="101.466"/>
	
		<line style="clip-path:url(#SVGID_2_);fill:none;stroke:#FFFFFF;stroke-width:3;stroke-linecap:round;stroke-linejoin:round;stroke-miterlimit:10;" x1="903.326" y1="76.75" x2="862.941" y2="76.75"/>
	
		<line style="clip-path:url(#SVGID_2_);fill:none;stroke:#FFFFFF;stroke-width:3;stroke-linecap:round;stroke-linejoin:round;stroke-miterlimit:10;" x1="883.441" y1="534.372" x2="1174.119" y2="800.168"/>
	
		<line style="clip-path:url(#SVGID_2_);fill:none;stroke:#FFFFFF;stroke-width:3;stroke-linecap:round;stroke-linejoin:round;stroke-miterlimit:10;" x1="1192.611" y1="797.25" x2="1225.658" y2="739.193"/>
	
		<line style="clip-path:url(#SVGID_2_);fill:none;stroke:#FFFFFF;stroke-width:3;stroke-linecap:round;stroke-linejoin:round;stroke-miterlimit:10;" x1="1199.818" y1="813.615" x2="1243.793" y2="823.611"/>
	
		<line style="clip-path:url(#SVGID_2_);fill:none;stroke:#FFFFFF;stroke-width:3;stroke-linecap:round;stroke-linejoin:round;stroke-miterlimit:10;" x1="1189.918" y1="824.529" x2="1213.154" y2="894.494"/>
	
		<line style="clip-path:url(#SVGID_2_);fill:none;stroke:#FFFFFF;stroke-width:3;stroke-linecap:round;stroke-linejoin:round;stroke-miterlimit:10;" x1="1170.865" y1="814.754" x2="1114.049" y2="832.455"/>
	
		<line style="clip-path:url(#SVGID_2_);fill:none;stroke:#FFFFFF;stroke-width:3;stroke-linecap:round;stroke-linejoin:round;stroke-miterlimit:10;" x1="874.336" y1="539.121" x2="937.766" y2="1019.271"/>
	
		<line style="clip-path:url(#SVGID_2_);fill:none;stroke:#FFFFFF;stroke-width:3;stroke-linecap:round;stroke-linejoin:round;stroke-miterlimit:10;" x1="925.703" y1="1028.818" x2="872.607" y2="1008.662"/>
	
		<line style="clip-path:url(#SVGID_2_);fill:none;stroke:#FFFFFF;stroke-width:3;stroke-linecap:round;stroke-linejoin:round;stroke-miterlimit:10;" x1="932.334" y1="1047.197" x2="908.586" y2="1089.105"/>
	
		<line style="clip-path:url(#SVGID_2_);fill:none;stroke:#FFFFFF;stroke-width:3;stroke-linecap:round;stroke-linejoin:round;stroke-miterlimit:10;" x1="953.662" y1="1028.572" x2="994.066" y2="1012.41"/>
	
		<line style="clip-path:url(#SVGID_2_);fill:none;stroke:#FFFFFF;stroke-width:3;stroke-linecap:round;stroke-linejoin:round;stroke-miterlimit:10;" x1="861.045" y1="534.085" x2="769.697" y2="613.414"/>
	
		<line style="clip-path:url(#SVGID_2_);fill:none;stroke:#FFFFFF;stroke-width:3;stroke-linecap:round;stroke-linejoin:round;stroke-miterlimit:10;" x1="745.513" y1="630.982" x2="694.692" y2="661.551"/>
	
		<line style="clip-path:url(#SVGID_2_);fill:none;stroke:#FFFFFF;stroke-width:3;stroke-linecap:round;stroke-linejoin:round;stroke-miterlimit:10;" x1="761.99" y1="637.809" x2="778.866" y2="705.688"/>
	
		<line style="clip-path:url(#SVGID_2_);fill:none;stroke:#FFFFFF;stroke-width:3;stroke-linecap:round;stroke-linejoin:round;stroke-miterlimit:10;" x1="771.277" y1="630.9" x2="837.014" y2="669.875"/>
	<path style="clip-path:url(#SVGID_2_);fill:#FFFFFF;" d="M429.48,666.939c2.771,2.771,2.771,7.262,0,10.033
		c-2.77,2.77-7.262,2.77-10.032,0c-2.77-2.771-2.77-7.262,0-10.033C422.219,664.17,426.71,664.17,429.48,666.939"/>
	
		<path style="clip-path:url(#SVGID_2_);fill:none;stroke:#FFFFFF;stroke-linecap:round;stroke-linejoin:round;stroke-miterlimit:10;" d="
		M429.48,666.939c2.771,2.771,2.771,7.262,0,10.033c-2.77,2.77-7.262,2.77-10.032,0c-2.77-2.771-2.77-7.262,0-10.033
		C422.219,664.17,426.71,664.17,429.48,666.939"/>
	<path style="clip-path:url(#SVGID_2_);fill:#FFFFFF;" d="M496.72,652.148c3.797,3.799,3.797,9.955,0,13.754
		c-3.798,3.797-9.955,3.797-13.753,0c-3.798-3.799-3.798-9.955,0-13.754C486.765,648.352,492.922,648.352,496.72,652.148"/>
	
		<path style="clip-path:url(#SVGID_2_);fill:none;stroke:#FFFFFF;stroke-linecap:round;stroke-linejoin:round;stroke-miterlimit:10;" d="
		M496.72,652.148c3.797,3.799,3.797,9.955,0,13.754c-3.798,3.797-9.955,3.797-13.753,0c-3.798-3.799-3.798-9.955,0-13.754
		C486.765,648.352,492.922,648.352,496.72,652.148"/>
	<path style="clip-path:url(#SVGID_2_);fill:#FFFFFF;" d="M522.496,720.818c2.77,2.771,2.77,7.262,0,10.033
		c-2.771,2.77-7.263,2.77-10.033,0c-2.77-2.771-2.77-7.262,0-10.033C515.233,718.049,519.725,718.049,522.496,720.818"/>
	
		<path style="clip-path:url(#SVGID_2_);fill:none;stroke:#FFFFFF;stroke-linecap:round;stroke-linejoin:round;stroke-miterlimit:10;" d="
		M522.496,720.818c2.77,2.771,2.77,7.262,0,10.033c-2.771,2.77-7.263,2.77-10.033,0c-2.77-2.771-2.77-7.262,0-10.033
		C515.233,718.049,519.725,718.049,522.496,720.818"/>
	<path style="clip-path:url(#SVGID_2_);fill:#FFFFFF;" d="M535.666,601.936c2.771,2.77,2.771,7.262,0,10.031
		c-2.771,2.771-7.262,2.771-10.032,0c-2.771-2.77-2.771-7.262,0-10.031C528.404,599.164,532.895,599.164,535.666,601.936"/>
	
		<path style="clip-path:url(#SVGID_2_);fill:none;stroke:#FFFFFF;stroke-linecap:round;stroke-linejoin:round;stroke-miterlimit:10;" d="
		M535.666,601.936c2.771,2.77,2.771,7.262,0,10.031c-2.771,2.771-7.262,2.771-10.032,0c-2.771-2.77-2.771-7.262,0-10.031
		C528.404,599.164,532.895,599.164,535.666,601.936"/>
	
		<line style="clip-path:url(#SVGID_2_);fill:none;stroke:#FFFFFF;stroke-width:3;stroke-linecap:round;stroke-linejoin:round;stroke-miterlimit:10;" x1="495.842" y1="651.371" x2="526.274" y2="612.535"/>
	
		<line style="clip-path:url(#SVGID_2_);fill:none;stroke:#FFFFFF;stroke-width:3;stroke-linecap:round;stroke-linejoin:round;stroke-miterlimit:10;" x1="480.302" y1="660.912" x2="431.424" y2="670.58"/>
	
		<line style="clip-path:url(#SVGID_2_);fill:none;stroke:#FFFFFF;stroke-width:3;stroke-linecap:round;stroke-linejoin:round;stroke-miterlimit:10;" x1="493.561" y1="668.014" x2="514.767" y2="719.277"/>
	
		<line style="clip-path:url(#SVGID_2_);fill:none;stroke:#FFFFFF;stroke-width:3;stroke-linecap:round;stroke-linejoin:round;stroke-miterlimit:10;" x1="743.501" y1="625.23" x2="499.484" y2="657.742"/>
	<path style="clip-path:url(#SVGID_2_);fill:#FFFFFF;" d="M466.296,612.309c2.771,2.77,2.771,7.262,0,10.031
		c-2.771,2.771-7.262,2.771-10.032,0c-2.771-2.77-2.771-7.262,0-10.031C459.035,609.537,463.526,609.537,466.296,612.309"/>
	
		<path style="clip-path:url(#SVGID_2_);fill:none;stroke:#FFFFFF;stroke-linecap:round;stroke-linejoin:round;stroke-miterlimit:10;" d="
		M466.296,612.309c2.771,2.77,2.771,7.262,0,10.031c-2.771,2.771-7.262,2.771-10.032,0c-2.771-2.77-2.771-7.262,0-10.031
		C459.035,609.537,463.526,609.537,466.296,612.309"/>
	
		<line style="clip-path:url(#SVGID_2_);fill:none;stroke:#FFFFFF;stroke-width:3;stroke-linecap:round;stroke-linejoin:round;stroke-miterlimit:10;" x1="484.347" y1="651.002" x2="465.29" y2="623.178"/>
	<path style="clip-path:url(#SVGID_2_);fill:#FFFFFF;" d="M636.979,114.452c3.784,3.784,3.784,9.918,0,13.702
		c-3.783,3.784-9.918,3.784-13.702,0c-3.783-3.784-3.783-9.918,0-13.702C627.061,110.668,633.196,110.668,636.979,114.452"/>
	
		<path style="clip-path:url(#SVGID_2_);fill:none;stroke:#FFFFFF;stroke-linecap:round;stroke-linejoin:round;stroke-miterlimit:10;" d="
		M636.979,114.452c3.784,3.784,3.784,9.918,0,13.702c-3.783,3.784-9.918,3.784-13.702,0c-3.783-3.784-3.783-9.918,0-13.702
		C627.061,110.668,633.196,110.668,636.979,114.452"/>
	
		<line style="clip-path:url(#SVGID_2_);fill:none;stroke:#FFFFFF;stroke-width:3;stroke-linecap:round;stroke-linejoin:round;stroke-miterlimit:10;" x1="674.961" y1="90.553" x2="638.12" y2="115.822"/>
	<path style="clip-path:url(#SVGID_2_);fill:#FFFFFF;" d="M1279.494,439.156c2.771,2.771,2.771,7.262,0,10.032
		c-2.77,2.771-7.262,2.771-10.031,0c-2.77-2.77-2.77-7.262,0-10.032C1272.232,436.386,1276.725,436.386,1279.494,439.156"/>
	
		<path style="clip-path:url(#SVGID_2_);fill:none;stroke:#FFFFFF;stroke-linecap:round;stroke-linejoin:round;stroke-miterlimit:10;" d="
		M1279.494,439.156c2.771,2.771,2.771,7.262,0,10.032c-2.77,2.771-7.262,2.771-10.031,0c-2.77-2.77-2.77-7.262,0-10.032
		C1272.232,436.386,1276.725,436.386,1279.494,439.156"/>
	<path style="clip-path:url(#SVGID_2_);fill:#FFFFFF;" d="M1335.348,456.37c3.797,3.798,3.797,9.955,0,13.753
		c-3.799,3.798-9.955,3.798-13.754,0c-3.797-3.798-3.797-9.955,0-13.753C1325.393,452.573,1331.549,452.573,1335.348,456.37"/>
	
		<path style="clip-path:url(#SVGID_2_);fill:none;stroke:#FFFFFF;stroke-linecap:round;stroke-linejoin:round;stroke-miterlimit:10;" d="
		M1335.348,456.37c3.797,3.798,3.797,9.955,0,13.753c-3.799,3.798-9.955,3.798-13.754,0c-3.797-3.798-3.797-9.955,0-13.753
		C1325.393,452.573,1331.549,452.573,1335.348,456.37"/>
	<path style="clip-path:url(#SVGID_2_);fill:#FFFFFF;" d="M1288.48,496.327c2.77,2.771,2.77,7.262,0,10.032
		c-2.77,2.771-7.262,2.771-10.031,0c-2.771-2.77-2.771-7.262,0-10.032C1281.219,493.557,1285.711,493.557,1288.48,496.327"/>
	
		<path style="clip-path:url(#SVGID_2_);fill:none;stroke:#FFFFFF;stroke-linecap:round;stroke-linejoin:round;stroke-miterlimit:10;" d="
		M1288.48,496.327c2.77,2.771,2.77,7.262,0,10.032c-2.77,2.771-7.262,2.771-10.031,0c-2.771-2.77-2.771-7.262,0-10.032
		C1281.219,493.557,1285.711,493.557,1288.48,496.327"/>
	
		<line style="clip-path:url(#SVGID_2_);fill:none;stroke:#FFFFFF;stroke-width:3;stroke-linecap:round;stroke-linejoin:round;stroke-miterlimit:10;" x1="1319.299" y1="460.006" x2="1281.168" y2="446.536"/>
	
		<line style="clip-path:url(#SVGID_2_);fill:none;stroke:#FFFFFF;stroke-width:3;stroke-linecap:round;stroke-linejoin:round;stroke-miterlimit:10;" x1="1321.047" y1="469.53" x2="1288.879" y2="496.76"/>
	<path style="clip-path:url(#SVGID_2_);fill:#FFFFFF;" d="M1304.486,393.156c2.77,2.771,2.77,7.262,0,10.032
		c-2.771,2.771-7.262,2.771-10.033,0c-2.77-2.77-2.77-7.262,0-10.032C1297.225,390.386,1301.715,390.386,1304.486,393.156"/>
	
		<path style="clip-path:url(#SVGID_2_);fill:none;stroke:#FFFFFF;stroke-linecap:round;stroke-linejoin:round;stroke-miterlimit:10;" d="
		M1304.486,393.156c2.77,2.771,2.77,7.262,0,10.032c-2.771,2.771-7.262,2.771-10.033,0c-2.77-2.77-2.77-7.262,0-10.032
		C1297.225,390.386,1301.715,390.386,1304.486,393.156"/>
	
		<line style="clip-path:url(#SVGID_2_);fill:none;stroke:#FFFFFF;stroke-width:3;stroke-linecap:round;stroke-linejoin:round;stroke-miterlimit:10;" x1="1324.512" y1="454.362" x2="1302.359" y2="404.653"/>
	<path style="clip-path:url(#SVGID_2_);fill:#FFFFFF;" d="M1330.855,513.268c2.771,2.771,2.771,7.262,0,10.032
		c-2.77,2.771-7.262,2.771-10.031,0c-2.771-2.77-2.771-7.262,0-10.032C1323.594,510.498,1328.086,510.498,1330.855,513.268"/>
	
		<path style="clip-path:url(#SVGID_2_);fill:none;stroke:#FFFFFF;stroke-linecap:round;stroke-linejoin:round;stroke-miterlimit:10;" d="
		M1330.855,513.268c2.771,2.771,2.771,7.262,0,10.032c-2.77,2.771-7.262,2.771-10.031,0c-2.771-2.77-2.771-7.262,0-10.032
		C1323.594,510.498,1328.086,510.498,1330.855,513.268"/>
	
		<line style="clip-path:url(#SVGID_2_);fill:none;stroke:#FFFFFF;stroke-width:3;stroke-linecap:round;stroke-linejoin:round;stroke-miterlimit:10;" x1="1328.006" y1="472.96" x2="1326.178" y2="511.198"/>
	<path style="clip-path:url(#SVGID_2_);fill:#FFFFFF;" d="M995.021,1085.281c4.184,4.184,4.184,10.969,0,15.152
		s-10.969,4.184-15.152,0s-4.184-10.969,0-15.152S990.838,1081.098,995.021,1085.281"/>
	
		<path style="clip-path:url(#SVGID_2_);fill:none;stroke:#FFFFFF;stroke-linecap:round;stroke-linejoin:round;stroke-miterlimit:10;" d="
		M995.021,1085.281c4.184,4.184,4.184,10.969,0,15.152s-10.969,4.184-15.152,0s-4.184-10.969,0-15.152
		S990.838,1081.098,995.021,1085.281"/>
	
		<line style="clip-path:url(#SVGID_2_);fill:none;stroke:#FFFFFF;stroke-width:3;stroke-linecap:round;stroke-linejoin:round;stroke-miterlimit:10;" x1="949.191" y1="1045.785" x2="980.688" y2="1084.543"/>
	<path style="clip-path:url(#SVGID_2_);fill:#FFFFFF;" d="M1461.705,682.812c3.797,3.797,3.797,9.955,0,13.752
		c-3.797,3.799-9.955,3.799-13.752,0c-3.799-3.797-3.799-9.955,0-13.752C1451.75,679.016,1457.908,679.016,1461.705,682.812"/>
	
		<path style="clip-path:url(#SVGID_2_);fill:none;stroke:#FFFFFF;stroke-linecap:round;stroke-linejoin:round;stroke-miterlimit:10;" d="
		M1461.705,682.812c3.797,3.797,3.797,9.955,0,13.752c-3.797,3.799-9.955,3.799-13.752,0c-3.799-3.797-3.799-9.955,0-13.752
		C1451.75,679.016,1457.908,679.016,1461.705,682.812"/>
	<path style="clip-path:url(#SVGID_2_);fill:#FFFFFF;" d="M1404.508,687.305c2.77,2.77,2.77,7.262,0,10.031s-7.262,2.77-10.031,0
		c-2.771-2.77-2.771-7.262,0-10.031C1397.246,684.533,1401.738,684.533,1404.508,687.305"/>
	
		<path style="clip-path:url(#SVGID_2_);fill:none;stroke:#FFFFFF;stroke-linecap:round;stroke-linejoin:round;stroke-miterlimit:10;" d="
		M1404.508,687.305c2.77,2.77,2.77,7.262,0,10.031s-7.262,2.77-10.031,0c-2.771-2.77-2.771-7.262,0-10.031
		C1397.246,684.533,1401.738,684.533,1404.508,687.305"/>
	<path style="clip-path:url(#SVGID_2_);fill:#FFFFFF;" d="M1503.883,707.443c2.771,2.77,2.771,7.262,0,10.031
		c-2.77,2.771-7.262,2.771-10.031,0c-2.77-2.77-2.77-7.262,0-10.031S1501.113,704.674,1503.883,707.443"/>
	
		<path style="clip-path:url(#SVGID_2_);fill:none;stroke:#FFFFFF;stroke-linecap:round;stroke-linejoin:round;stroke-miterlimit:10;" d="
		M1503.883,707.443c2.771,2.77,2.771,7.262,0,10.031c-2.77,2.771-7.262,2.771-10.031,0c-2.77-2.77-2.77-7.262,0-10.031
		S1501.113,704.674,1503.883,707.443"/>
	
		<line style="clip-path:url(#SVGID_2_);fill:none;stroke:#FFFFFF;stroke-width:3;stroke-linecap:round;stroke-linejoin:round;stroke-miterlimit:10;" x1="1463.469" y1="694.156" x2="1492.564" y2="709.201"/>
	
		<line style="clip-path:url(#SVGID_2_);fill:none;stroke:#FFFFFF;stroke-width:3;stroke-linecap:round;stroke-linejoin:round;stroke-miterlimit:10;" x1="1445.115" y1="690.15" x2="1406.578" y2="691.982"/>
	<path style="clip-path:url(#SVGID_2_);fill:#FFFFFF;" d="M1496.885,653.312c2.77,2.771,2.77,7.262,0,10.033
		c-2.77,2.77-7.262,2.77-10.031,0c-2.771-2.771-2.771-7.262,0-10.033C1489.623,650.543,1494.115,650.543,1496.885,653.312"/>
	
		<path style="clip-path:url(#SVGID_2_);fill:none;stroke:#FFFFFF;stroke-linecap:round;stroke-linejoin:round;stroke-miterlimit:10;" d="
		M1496.885,653.312c2.77,2.771,2.77,7.262,0,10.033c-2.77,2.77-7.262,2.77-10.031,0c-2.771-2.771-2.771-7.262,0-10.033
		C1489.623,650.543,1494.115,650.543,1496.885,653.312"/>
	
		<line style="clip-path:url(#SVGID_2_);fill:none;stroke:#FFFFFF;stroke-width:3;stroke-linecap:round;stroke-linejoin:round;stroke-miterlimit:10;" x1="1462.25" y1="683.404" x2="1486.455" y2="662.912"/>
	<path style="clip-path:url(#SVGID_2_);fill:#FFFFFF;" d="M1462.477,724.715c2.77,2.77,2.77,7.262,0,10.031
		c-2.771,2.771-7.264,2.771-10.033,0c-2.77-2.77-2.77-7.262,0-10.031C1455.213,721.943,1459.705,721.943,1462.477,724.715"/>
	
		<path style="clip-path:url(#SVGID_2_);fill:none;stroke:#FFFFFF;stroke-linecap:round;stroke-linejoin:round;stroke-miterlimit:10;" d="
		M1462.477,724.715c2.77,2.77,2.77,7.262,0,10.031c-2.771,2.771-7.264,2.771-10.033,0c-2.77-2.77-2.77-7.262,0-10.031
		C1455.213,721.943,1459.705,721.943,1462.477,724.715"/>
	
		<line style="clip-path:url(#SVGID_2_);fill:none;stroke:#FFFFFF;stroke-width:3;stroke-linecap:round;stroke-linejoin:round;stroke-miterlimit:10;" x1="1455.467" y1="699.393" x2="1456.994" y2="722.652"/>
	<path style="clip-path:url(#SVGID_2_);fill:#FFFFFF;" d="M619.481,370.033c2.77,2.771,2.77,7.262,0,10.032
		c-2.771,2.771-7.263,2.771-10.032,0c-2.771-2.77-2.771-7.262,0-10.032C612.218,367.262,616.71,367.262,619.481,370.033"/>
	
		<path style="clip-path:url(#SVGID_2_);fill:none;stroke:#FFFFFF;stroke-linecap:round;stroke-linejoin:round;stroke-miterlimit:10;" d="
		M619.481,370.033c2.77,2.771,2.77,7.262,0,10.032c-2.771,2.771-7.263,2.771-10.032,0c-2.771-2.77-2.771-7.262,0-10.032
		C612.218,367.262,616.71,367.262,619.481,370.033"/>
	<path style="clip-path:url(#SVGID_2_);fill:#FFFFFF;" d="M646.706,404.658c3.798,3.798,3.798,9.955,0,13.753
		c-3.798,3.797-9.955,3.797-13.753,0c-3.798-3.798-3.798-9.955,0-13.753S642.908,400.86,646.706,404.658"/>
	
		<path style="clip-path:url(#SVGID_2_);fill:none;stroke:#FFFFFF;stroke-linecap:round;stroke-linejoin:round;stroke-miterlimit:10;" d="
		M646.706,404.658c3.798,3.798,3.798,9.955,0,13.753c-3.798,3.797-9.955,3.797-13.753,0c-3.798-3.798-3.798-9.955,0-13.753
		S642.908,400.86,646.706,404.658"/>
	<path style="clip-path:url(#SVGID_2_);fill:#FFFFFF;" d="M647.476,476.157c2.771,2.771,2.771,7.262,0,10.032
		c-2.771,2.771-7.262,2.771-10.032,0c-2.771-2.77-2.771-7.262,0-10.032C640.214,473.387,644.706,473.387,647.476,476.157"/>
	
		<path style="clip-path:url(#SVGID_2_);fill:none;stroke:#FFFFFF;stroke-linecap:round;stroke-linejoin:round;stroke-miterlimit:10;" d="
		M647.476,476.157c2.771,2.77,2.771,7.262,0,10.032c-2.771,2.771-7.262,2.771-10.032,0c-2.771-2.77-2.771-7.262,0-10.032
		C640.214,473.387,644.706,473.387,647.476,476.157"/>
	<path style="clip-path:url(#SVGID_2_);fill:#FFFFFF;" d="M714.481,378.327c2.77,2.771,2.77,7.262,0,10.032
		c-2.771,2.771-7.263,2.771-10.032,0c-2.771-2.77-2.771-7.262,0-10.032C707.218,375.557,711.71,375.557,714.481,378.327"/>
	
		<path style="clip-path:url(#SVGID_2_);fill:none;stroke:#FFFFFF;stroke-linecap:round;stroke-linejoin:round;stroke-miterlimit:10;" d="
		M714.481,378.327c2.77,2.771,2.77,7.262,0,10.032c-2.771,2.771-7.263,2.771-10.032,0c-2.771-2.77-2.771-7.262,0-10.032
		C707.218,375.557,711.71,375.557,714.481,378.327"/>
	
		<line style="clip-path:url(#SVGID_2_);fill:none;stroke:#FFFFFF;stroke-width:3;stroke-linecap:round;stroke-linejoin:round;stroke-miterlimit:10;" x1="648.845" y1="407.884" x2="702.887" y2="386.006"/>
	
		<line style="clip-path:url(#SVGID_2_);fill:none;stroke:#FFFFFF;stroke-width:3;stroke-linecap:round;stroke-linejoin:round;stroke-miterlimit:10;" x1="634.277" y1="403.548" x2="618.514" y2="380.875"/>
	
		<line style="clip-path:url(#SVGID_2_);fill:none;stroke:#FFFFFF;stroke-width:3;stroke-linecap:round;stroke-linejoin:round;stroke-miterlimit:10;" x1="640.196" y1="421.252" x2="642.192" y2="474.084"/>
	<path style="clip-path:url(#SVGID_2_);fill:#FFFFFF;" d="M669.481,337.882c2.77,2.77,2.77,7.262,0,10.032
		c-2.771,2.77-7.263,2.77-10.032,0c-2.771-2.771-2.771-7.262,0-10.032C662.218,335.112,666.71,335.112,669.481,337.882"/>
	
		<path style="clip-path:url(#SVGID_2_);fill:none;stroke:#FFFFFF;stroke-linecap:round;stroke-linejoin:round;stroke-miterlimit:10;" d="
		M669.481,337.882c2.77,2.77,2.77,7.262,0,10.032c-2.771,2.77-7.263,2.77-10.032,0c-2.771-2.771-2.771-7.262,0-10.032
		C662.218,335.112,666.71,335.112,669.481,337.882"/>
	
		<line style="clip-path:url(#SVGID_2_);fill:none;stroke:#FFFFFF;stroke-width:3;stroke-linecap:round;stroke-linejoin:round;stroke-miterlimit:10;" x1="643.115" y1="402.379" x2="662.068" y2="349.577"/>
	
		<line style="clip-path:url(#SVGID_2_);fill:none;stroke:#FFFFFF;stroke-width:2;stroke-linecap:round;stroke-linejoin:round;stroke-miterlimit:10;" x1="751.041" y1="610.158" x2="644.581" y2="420.021"/>
	<path style="clip-path:url(#SVGID_2_);fill:#FFFFFF;" d="M161.935,422.405c2.771,2.771,2.771,7.262,0,10.032
		c-2.77,2.771-7.262,2.771-10.032,0c-2.77-2.77-2.77-7.262,0-10.032C154.673,419.635,159.165,419.635,161.935,422.405"/>
	
		<path style="clip-path:url(#SVGID_2_);fill:none;stroke:#FFFFFF;stroke-linecap:round;stroke-linejoin:round;stroke-miterlimit:10;" d="
		M161.935,422.405c2.771,2.771,2.771,7.262,0,10.032c-2.77,2.771-7.262,2.771-10.032,0c-2.77-2.77-2.77-7.262,0-10.032
		C154.673,419.635,159.165,419.635,161.935,422.405"/>
	<path style="clip-path:url(#SVGID_2_);fill:#FFFFFF;" d="M203.16,423.176c3.797,3.798,3.797,9.955,0,13.753
		c-3.798,3.798-9.955,3.798-13.753,0s-3.798-9.955,0-13.753S199.362,419.378,203.16,423.176"/>
	
		<path style="clip-path:url(#SVGID_2_);fill:none;stroke:#FFFFFF;stroke-linecap:round;stroke-linejoin:round;stroke-miterlimit:10;" d="
		M203.16,423.176c3.797,3.798,3.797,9.955,0,13.753c-3.798,3.798-9.955,3.798-13.753,0s-3.798-9.955,0-13.753
		S199.362,419.378,203.16,423.176"/>
	<path style="clip-path:url(#SVGID_2_);fill:#FFFFFF;" d="M173.48,470.327c2.771,2.771,2.771,7.262,0,10.032
		c-2.77,2.771-7.262,2.771-10.032,0c-2.77-2.77-2.77-7.262,0-10.032C166.219,467.557,170.71,467.557,173.48,470.327"/>
	
		<path style="clip-path:url(#SVGID_2_);fill:none;stroke:#FFFFFF;stroke-linecap:round;stroke-linejoin:round;stroke-miterlimit:10;" d="
		M173.48,470.327c2.771,2.771,2.771,7.262,0,10.032c-2.77,2.771-7.262,2.771-10.032,0c-2.77-2.77-2.77-7.262,0-10.032
		C166.219,467.557,170.71,467.557,173.48,470.327"/>
	<path style="clip-path:url(#SVGID_2_);fill:#FFFFFF;" d="M239.935,460.861c2.771,2.771,2.771,7.262,0,10.032
		c-2.77,2.771-7.262,2.771-10.032,0c-2.77-2.77-2.77-7.262,0-10.032C232.673,458.091,237.165,458.091,239.935,460.861"/>
	
		<path style="clip-path:url(#SVGID_2_);fill:none;stroke:#FFFFFF;stroke-linecap:round;stroke-linejoin:round;stroke-miterlimit:10;" d="
		M239.935,460.861c2.771,2.771,2.771,7.262,0,10.032c-2.77,2.771-7.262,2.771-10.032,0c-2.77-2.77-2.77-7.262,0-10.032
		C232.673,458.091,237.165,458.091,239.935,460.861"/>
	
		<line style="clip-path:url(#SVGID_2_);fill:none;stroke:#FFFFFF;stroke-width:3;stroke-linecap:round;stroke-linejoin:round;stroke-miterlimit:10;" x1="203.415" y1="436.665" x2="229.717" y2="461.054"/>
	
		<line style="clip-path:url(#SVGID_2_);fill:none;stroke:#FFFFFF;stroke-width:3;stroke-linecap:round;stroke-linejoin:round;stroke-miterlimit:10;" x1="186.581" y1="429.404" x2="163.997" y2="427.895"/>
	
		<line style="clip-path:url(#SVGID_2_);fill:none;stroke:#FFFFFF;stroke-width:3;stroke-linecap:round;stroke-linejoin:round;stroke-miterlimit:10;" x1="191.193" y1="438.34" x2="172.178" y2="469.297"/>
	<path style="clip-path:url(#SVGID_2_);fill:#FFFFFF;" d="M201.3,360.415c2.77,2.771,2.77,7.262,0,10.032
		c-2.771,2.771-7.262,2.771-10.032,0c-2.771-2.771-2.771-7.262,0-10.032C194.038,357.644,198.529,357.644,201.3,360.415"/>
	
		<path style="clip-path:url(#SVGID_2_);fill:none;stroke:#FFFFFF;stroke-linecap:round;stroke-linejoin:round;stroke-miterlimit:10;" d="
		M201.3,360.415c2.77,2.771,2.77,7.262,0,10.032c-2.771,2.771-7.262,2.771-10.032,0c-2.771-2.771-2.771-7.262,0-10.032
		C194.038,357.644,198.529,357.644,201.3,360.415"/>
	
		<line style="clip-path:url(#SVGID_2_);fill:none;stroke:#FFFFFF;stroke-width:3;stroke-linecap:round;stroke-linejoin:round;stroke-miterlimit:10;" x1="196.871" y1="420.328" x2="196.871" y2="372.524"/>
	
		<line style="clip-path:url(#SVGID_2_);fill:none;stroke:#FFFFFF;stroke-width:2;stroke-linecap:round;stroke-linejoin:round;stroke-miterlimit:10;" x1="630.113" y1="411.939" x2="206" y2="429.646"/>
	<path style="clip-path:url(#SVGID_2_);fill:#FFFFFF;" d="M231.935,831.217c2.771,2.77,2.771,7.262,0,10.031
		c-2.77,2.771-7.262,2.771-10.032,0c-2.77-2.77-2.77-7.262,0-10.031C224.673,828.445,229.165,828.445,231.935,831.217"/>
	
		<path style="clip-path:url(#SVGID_2_);fill:none;stroke:#FFFFFF;stroke-linecap:round;stroke-linejoin:round;stroke-miterlimit:10;" d="
		M231.935,831.217c2.771,2.77,2.771,7.262,0,10.031c-2.77,2.771-7.262,2.771-10.032,0c-2.77-2.77-2.77-7.262,0-10.031
		C224.673,828.445,229.165,828.445,231.935,831.217"/>
	<path style="clip-path:url(#SVGID_2_);fill:#FFFFFF;" d="M303.16,821.414c3.797,3.799,3.797,9.957,0,13.754
		c-3.798,3.797-9.955,3.797-13.753,0s-3.798-9.955,0-13.754C293.205,817.617,299.362,817.617,303.16,821.414"/>
	
		<path style="clip-path:url(#SVGID_2_);fill:none;stroke:#FFFFFF;stroke-linecap:round;stroke-linejoin:round;stroke-miterlimit:10;" d="
		M303.16,821.416c3.797,3.797,3.797,9.955,0,13.752c-3.798,3.797-9.955,3.797-13.753,0s-3.798-9.955,0-13.752
		C293.205,817.617,299.362,817.617,303.16,821.416"/>
	<path style="clip-path:url(#SVGID_2_);fill:#FFFFFF;" d="M294.935,894.1c2.771,2.771,2.771,7.264,0,10.033
		c-2.77,2.77-7.262,2.77-10.032,0c-2.77-2.77-2.77-7.262,0-10.033C287.673,891.33,292.165,891.33,294.935,894.1"/>
	
		<path style="clip-path:url(#SVGID_2_);fill:none;stroke:#FFFFFF;stroke-linecap:round;stroke-linejoin:round;stroke-miterlimit:10;" d="
		M294.935,894.1c2.771,2.771,2.771,7.264,0,10.033c-2.77,2.77-7.262,2.77-10.032,0c-2.77-2.77-2.77-7.262,0-10.033
		C287.673,891.33,292.165,891.33,294.935,894.1"/>
	<path style="clip-path:url(#SVGID_2_);fill:#FFFFFF;" d="M386.736,890.1c2.771,2.771,2.771,7.264,0,10.033s-7.262,2.77-10.032,0
		s-2.771-7.262,0-10.033C379.475,887.33,383.966,887.33,386.736,890.1"/>
	
		<path style="clip-path:url(#SVGID_2_);fill:none;stroke:#FFFFFF;stroke-linecap:round;stroke-linejoin:round;stroke-miterlimit:10;" d="
		M386.736,890.1c2.771,2.771,2.771,7.264,0,10.033s-7.262,2.77-10.032,0s-2.771-7.262,0-10.033
		C379.475,887.33,383.966,887.33,386.736,890.1"/>
	
		<line style="clip-path:url(#SVGID_2_);fill:none;stroke:#FFFFFF;stroke-width:3;stroke-linecap:round;stroke-linejoin:round;stroke-miterlimit:10;" x1="303.944" y1="834.283" x2="376.132" y2="890.746"/>
	
		<line style="clip-path:url(#SVGID_2_);fill:none;stroke:#FFFFFF;stroke-width:3;stroke-linecap:round;stroke-linejoin:round;stroke-miterlimit:10;" x1="286.622" y1="829.398" x2="233.967" y2="835.426"/>
	
		<line style="clip-path:url(#SVGID_2_);fill:none;stroke:#FFFFFF;stroke-width:3;stroke-linecap:round;stroke-linejoin:round;stroke-miterlimit:10;" x1="295.413" y1="837.977" x2="290.554" y2="892.051"/>
	<path style="clip-path:url(#SVGID_2_);fill:#FFFFFF;" d="M283.48,754.328c2.771,2.77,2.771,7.262,0,10.031
		c-2.77,2.77-7.262,2.77-10.032,0c-2.77-2.77-2.77-7.262,0-10.031C276.219,751.557,280.71,751.557,283.48,754.328"/>
	
		<path style="clip-path:url(#SVGID_2_);fill:none;stroke:#FFFFFF;stroke-linecap:round;stroke-linejoin:round;stroke-miterlimit:10;" d="
		M283.48,754.328c2.771,2.77,2.771,7.262,0,10.031c-2.77,2.77-7.262,2.77-10.032,0c-2.77-2.77-2.77-7.262,0-10.031
		C276.219,751.557,280.71,751.557,283.48,754.328"/>
	
		<line style="clip-path:url(#SVGID_2_);fill:none;stroke:#FFFFFF;stroke-width:3;stroke-linecap:round;stroke-linejoin:round;stroke-miterlimit:10;" x1="293.85" y1="818.875" x2="280.24" y2="766.213"/>
	
		<line style="clip-path:url(#SVGID_2_);fill:none;stroke:#FFFFFF;stroke-width:2;stroke-linecap:round;stroke-linejoin:round;stroke-miterlimit:10;" x1="482.523" y1="665.428" x2="303.604" y2="821.889"/>
	<path style="clip-path:url(#SVGID_2_);fill:#FFFFFF;" d="M944.832,17.676c3.236,3.235,3.236,8.481,0,11.717
		c-3.234,3.235-8.48,3.235-11.717,0c-3.234-3.236-3.234-8.482,0-11.717C936.352,14.44,941.598,14.44,944.832,17.676"/>
	
		<path style="clip-path:url(#SVGID_2_);fill:none;stroke:#FFFFFF;stroke-linecap:round;stroke-linejoin:round;stroke-miterlimit:10;" d="
		M944.832,17.676c3.236,3.235,3.236,8.481,0,11.717c-3.234,3.235-8.48,3.235-11.717,0c-3.234-3.235-3.234-8.481,0-11.717
		C936.352,14.441,941.598,14.441,944.832,17.676"/>
	
		<line style="clip-path:url(#SVGID_2_);fill:none;stroke:#FFFFFF;stroke-width:2;stroke-linecap:round;stroke-linejoin:round;stroke-miterlimit:10;" x1="919.705" y1="65.83" x2="935.539" y2="31.076"/>
	<path style="clip-path:url(#SVGID_2_);fill:#FFFFFF;" d="M231.935,388.861c2.771,2.771,2.771,7.262,0,10.032
		c-2.77,2.771-7.262,2.771-10.032,0c-2.77-2.77-2.77-7.262,0-10.032C224.673,386.091,229.165,386.091,231.935,388.861"/>
	
		<path style="clip-path:url(#SVGID_2_);fill:none;stroke:#FFFFFF;stroke-linecap:round;stroke-linejoin:round;stroke-miterlimit:10;" d="
		M231.935,388.861c2.771,2.771,2.771,7.262,0,10.032c-2.77,2.771-7.262,2.771-10.032,0c-2.77-2.77-2.77-7.262,0-10.032
		C224.673,386.091,229.165,386.091,231.935,388.861"/>
	
		<line style="clip-path:url(#SVGID_2_);fill:none;stroke:#FFFFFF;stroke-width:2;stroke-linecap:round;stroke-linejoin:round;stroke-miterlimit:10;" x1="202.569" y1="422.631" x2="222.334" y2="399.291"/>
	<path style="clip-path:url(#SVGID_2_);fill:#FFFFFF;" d="M981.832,45.004c3.236,3.236,3.236,8.482,0,11.717
		c-3.234,3.236-8.48,3.236-11.717,0c-3.234-3.235-3.234-8.481,0-11.717C973.352,41.77,978.598,41.77,981.832,45.004"/>
	
		<path style="clip-path:url(#SVGID_2_);fill:none;stroke:#FFFFFF;stroke-linecap:round;stroke-linejoin:round;stroke-miterlimit:10;" d="
		M981.832,45.005c3.236,3.236,3.236,8.481,0,11.717c-3.234,3.235-8.48,3.235-11.717,0c-3.234-3.236-3.234-8.481,0-11.717
		C973.352,41.77,978.598,41.77,981.832,45.005"/>
	
		<line style="clip-path:url(#SVGID_2_);fill:none;stroke:#FFFFFF;stroke-linecap:round;stroke-linejoin:round;stroke-miterlimit:10;" x1="925.59" y1="71.905" x2="968.328" y2="54.057"/>
	
		<line style="clip-path:url(#SVGID_2_);fill:none;stroke:#FFFFFF;stroke-width:3;stroke-linecap:round;stroke-linejoin:round;stroke-miterlimit:10;" x1="1333.211" y1="471.741" x2="1450.088" y2="681.195"/>
	<path style="clip-path:url(#SVGID_2_);fill:#FFFFFF;" d="M1298.068,266.533c3.361,3.011,3.361,7.894,0,10.905
		c-3.363,3.011-8.814,3.011-12.176,0c-3.363-3.012-3.363-7.894,0-10.905C1289.254,263.522,1294.705,263.522,1298.068,266.533"/>
	
		<path style="clip-path:url(#SVGID_2_);fill:none;stroke:#FFFFFF;stroke-linecap:round;stroke-linejoin:round;stroke-miterlimit:10;" d="
		M1298.068,266.533c3.361,3.011,3.361,7.894,0,10.905c-3.363,3.011-8.814,3.011-12.176,0c-3.363-3.012-3.363-7.894,0-10.905
		C1289.254,263.522,1294.705,263.522,1298.068,266.533"/>
	<path style="clip-path:url(#SVGID_2_);fill:#FFFFFF;" d="M1311.068,179.508c3.361,3.011,3.361,7.894,0,10.905
		c-3.363,3.011-8.814,3.011-12.176,0c-3.363-3.012-3.363-7.894,0-10.905C1302.254,176.497,1307.705,176.497,1311.068,179.508"/>
	
		<path style="clip-path:url(#SVGID_2_);fill:none;stroke:#FFFFFF;stroke-linecap:round;stroke-linejoin:round;stroke-miterlimit:10;" d="
		M1311.068,179.508c3.361,3.011,3.361,7.894,0,10.905c-3.363,3.011-8.814,3.011-12.176,0c-3.363-3.012-3.363-7.894,0-10.905
		C1302.254,176.497,1307.705,176.497,1311.068,179.508"/>
	<path style="clip-path:url(#SVGID_2_);fill:#FFFFFF;" d="M1342.773,228.335c4.707,4.216,4.707,11.052,0,15.268
		s-12.338,4.216-17.045,0s-4.707-11.051,0-15.268C1330.436,224.12,1338.066,224.12,1342.773,228.335"/>
	
		<path style="clip-path:url(#SVGID_2_);fill:none;stroke:#FFFFFF;stroke-linecap:round;stroke-linejoin:round;stroke-miterlimit:10;" d="
		M1342.773,228.335c4.707,4.216,4.707,11.052,0,15.268s-12.338,4.216-17.045,0s-4.707-11.051,0-15.268
		C1330.436,224.12,1338.066,224.12,1342.773,228.335"/>
	<path style="clip-path:url(#SVGID_2_);fill:#FFFFFF;" d="M1391.992,212.01c3.361,3.012,3.361,7.894,0,10.905
		c-3.363,3.011-8.814,3.011-12.176,0s-3.361-7.894,0-10.905C1383.178,208.999,1388.629,208.999,1391.992,212.01"/>
	
		<path style="clip-path:url(#SVGID_2_);fill:none;stroke:#FFFFFF;stroke-linecap:round;stroke-linejoin:round;stroke-miterlimit:10;" d="
		M1391.992,212.01c3.361,3.012,3.361,7.894,0,10.905c-3.363,3.011-8.814,3.011-12.176,0s-3.361-7.894,0-10.905
		C1383.178,208.999,1388.629,208.999,1391.992,212.01"/>
	
		<line style="clip-path:url(#SVGID_2_);fill:none;stroke:#FFFFFF;stroke-width:3;stroke-linecap:round;stroke-linejoin:round;stroke-miterlimit:10;" x1="1328.738" y1="226.365" x2="1308.916" y2="191.821"/>
	
		<line style="clip-path:url(#SVGID_2_);fill:none;stroke:#FFFFFF;stroke-width:3;stroke-linecap:round;stroke-linejoin:round;stroke-miterlimit:10;" x1="1325.518" y1="243.41" x2="1298.217" y2="266.671"/>
	
		<line style="clip-path:url(#SVGID_2_);fill:none;stroke:#FFFFFF;stroke-width:3;stroke-linecap:round;stroke-linejoin:round;stroke-miterlimit:10;" x1="1345.443" y1="231.959" x2="1377.91" y2="220.327"/>
	<path style="clip-path:url(#SVGID_2_);fill:#FFFFFF;" d="M1378.676,272.774c3.363,3.011,3.363,7.894,0,10.905
		c-3.361,3.011-8.812,3.011-12.174,0s-3.361-7.894,0-10.905S1375.314,269.763,1378.676,272.774"/>
	
		<path style="clip-path:url(#SVGID_2_);fill:none;stroke:#FFFFFF;stroke-linecap:round;stroke-linejoin:round;stroke-miterlimit:10;" d="
		M1378.676,272.774c3.363,3.011,3.363,7.894,0,10.905c-3.361,3.011-8.812,3.011-12.174,0s-3.361-7.894,0-10.905
		S1375.314,269.763,1378.676,272.774"/>
	
		<line style="clip-path:url(#SVGID_2_);fill:none;stroke:#FFFFFF;stroke-width:3;stroke-linecap:round;stroke-linejoin:round;stroke-miterlimit:10;" x1="1341.852" y1="244.348" x2="1367.16" y2="272.242"/>
	
		<line style="clip-path:url(#SVGID_2_);fill:none;stroke:#FFFFFF;stroke-width:3;stroke-linecap:round;stroke-linejoin:round;stroke-miterlimit:10;" x1="1328.717" y1="453.525" x2="1333.977" y2="246.762"/>
	<path style="clip-path:url(#SVGID_2_);fill:#FFFFFF;" d="M1563.355,601.936c2.77,2.77,2.77,7.262,0,10.031
		c-2.771,2.771-7.262,2.771-10.033,0c-2.77-2.77-2.77-7.262,0-10.031C1556.094,599.164,1560.584,599.164,1563.355,601.936"/>
	
		<path style="clip-path:url(#SVGID_2_);fill:none;stroke:#FFFFFF;stroke-linecap:round;stroke-linejoin:round;stroke-miterlimit:10;" d="
		M1563.355,601.936c2.77,2.77,2.77,7.262,0,10.031c-2.771,2.771-7.262,2.771-10.033,0c-2.77-2.77-2.77-7.262,0-10.031
		C1556.094,599.164,1560.584,599.164,1563.355,601.936"/>
	<path style="clip-path:url(#SVGID_2_);fill:#FFFFFF;" d="M1608.668,581.637c3.797,3.797,3.797,9.955,0,13.752
		c-3.799,3.799-9.955,3.799-13.754,0c-3.797-3.797-3.797-9.955,0-13.752C1598.713,577.838,1604.869,577.838,1608.668,581.637"/>
	
		<path style="clip-path:url(#SVGID_2_);fill:none;stroke:#FFFFFF;stroke-linecap:round;stroke-linejoin:round;stroke-miterlimit:10;" d="
		M1608.668,581.637c3.797,3.797,3.797,9.955,0,13.752c-3.799,3.799-9.955,3.799-13.754,0c-3.797-3.797-3.797-9.955,0-13.752
		C1598.713,577.838,1604.869,577.838,1608.668,581.637"/>
	<path style="clip-path:url(#SVGID_2_);fill:#FFFFFF;" d="M1599.48,633.328c2.77,2.77,2.77,7.262,0,10.031
		c-2.77,2.771-7.262,2.771-10.031,0c-2.771-2.77-2.771-7.262,0-10.031C1592.219,630.557,1596.711,630.557,1599.48,633.328"/>
	
		<path style="clip-path:url(#SVGID_2_);fill:none;stroke:#FFFFFF;stroke-linecap:round;stroke-linejoin:round;stroke-miterlimit:10;" d="
		M1599.48,633.328c2.77,2.77,2.77,7.262,0,10.031c-2.77,2.771-7.262,2.771-10.031,0c-2.771-2.77-2.771-7.262,0-10.031
		C1592.219,630.557,1596.711,630.557,1599.48,633.328"/>
	<path style="clip-path:url(#SVGID_2_);fill:#FFFFFF;" d="M1645.443,619.322c2.77,2.77,2.77,7.262,0,10.031
		c-2.771,2.771-7.262,2.771-10.033,0c-2.77-2.77-2.77-7.262,0-10.031C1638.182,616.553,1642.672,616.553,1645.443,619.322"/>
	
		<path style="clip-path:url(#SVGID_2_);fill:none;stroke:#FFFFFF;stroke-linecap:round;stroke-linejoin:round;stroke-miterlimit:10;" d="
		M1645.443,619.322c2.77,2.77,2.77,7.262,0,10.031c-2.771,2.771-7.262,2.771-10.033,0c-2.77-2.77-2.77-7.262,0-10.031
		C1638.182,616.553,1642.672,616.553,1645.443,619.322"/>
	
		<line style="clip-path:url(#SVGID_2_);fill:none;stroke:#FFFFFF;stroke-width:3;stroke-linecap:round;stroke-linejoin:round;stroke-miterlimit:10;" x1="1608.922" y1="595.125" x2="1635.227" y2="619.516"/>
	
		<line style="clip-path:url(#SVGID_2_);fill:none;stroke:#FFFFFF;stroke-width:3;stroke-linecap:round;stroke-linejoin:round;stroke-miterlimit:10;" x1="1592.836" y1="592.312" x2="1564.871" y2="604.18"/>
	
		<line style="clip-path:url(#SVGID_2_);fill:none;stroke:#FFFFFF;stroke-width:3;stroke-linecap:round;stroke-linejoin:round;stroke-miterlimit:10;" x1="1600.377" y1="598.135" x2="1595.496" y2="631.324"/>
	<path style="clip-path:url(#SVGID_2_);fill:#FFFFFF;" d="M1606.809,518.875c2.77,2.771,2.77,7.262,0,10.032
		c-2.771,2.77-7.264,2.77-10.033,0c-2.771-2.771-2.771-7.262,0-10.032C1599.545,516.104,1604.037,516.104,1606.809,518.875"/>
	
		<path style="clip-path:url(#SVGID_2_);fill:none;stroke:#FFFFFF;stroke-linecap:round;stroke-linejoin:round;stroke-miterlimit:10;" d="
		M1606.809,518.875c2.77,2.771,2.77,7.262,0,10.032c-2.771,2.77-7.264,2.77-10.033,0c-2.771-2.771-2.771-7.262,0-10.032
		C1599.545,516.104,1604.037,516.104,1606.809,518.875"/>
	
		<line style="clip-path:url(#SVGID_2_);fill:none;stroke:#FFFFFF;stroke-width:3;stroke-linecap:round;stroke-linejoin:round;stroke-miterlimit:10;" x1="1601.871" y1="578.789" x2="1601.871" y2="530.985"/>
	<path style="clip-path:url(#SVGID_2_);fill:#FFFFFF;" d="M1637.443,547.322c2.77,2.77,2.77,7.262,0,10.032
		c-2.771,2.771-7.262,2.771-10.033,0c-2.77-2.77-2.77-7.262,0-10.032C1630.182,544.552,1634.672,544.552,1637.443,547.322"/>
	
		<path style="clip-path:url(#SVGID_2_);fill:none;stroke:#FFFFFF;stroke-linecap:round;stroke-linejoin:round;stroke-miterlimit:10;" d="
		M1637.443,547.322c2.77,2.77,2.77,7.262,0,10.032c-2.771,2.771-7.262,2.771-10.033,0c-2.77-2.77-2.77-7.262,0-10.032
		C1630.182,544.552,1634.672,544.552,1637.443,547.322"/>
	
		<line style="clip-path:url(#SVGID_2_);fill:none;stroke:#FFFFFF;stroke-width:2;stroke-linecap:round;stroke-linejoin:round;stroke-miterlimit:10;" x1="1608.076" y1="581.092" x2="1627.842" y2="557.752"/>
	
		<line style="clip-path:url(#SVGID_2_);fill:none;stroke:#FFFFFF;stroke-width:3;stroke-linecap:round;stroke-linejoin:round;stroke-miterlimit:10;" x1="1337.314" y1="467.299" x2="1592.949" y2="584.461"/>
	
		<line style="clip-path:url(#SVGID_2_);fill:none;stroke:#FFFFFF;stroke-width:3;stroke-linecap:round;stroke-linejoin:round;stroke-miterlimit:10;" x1="887.238" y1="522.261" x2="1318.832" y2="464.536"/>
	<path style="clip-path:url(#SVGID_2_);fill:#FFFFFF;" d="M1139.893,187.327c2.771,2.771,2.771,7.262,0,10.032
		c-2.77,2.771-7.262,2.771-10.031,0c-2.77-2.77-2.77-7.262,0-10.032C1132.631,184.557,1137.123,184.557,1139.893,187.327"/>
	
		<path style="clip-path:url(#SVGID_2_);fill:none;stroke:#FFFFFF;stroke-linecap:round;stroke-linejoin:round;stroke-miterlimit:10;" d="
		M1139.895,187.327c2.77,2.771,2.77,7.262,0,10.032c-2.771,2.771-7.264,2.771-10.033,0c-2.771-2.77-2.771-7.262,0-10.032
		C1132.631,184.557,1137.123,184.557,1139.895,187.327"/>
	<path style="clip-path:url(#SVGID_2_);fill:#FFFFFF;" d="M1183.705,197.642c3.797,3.798,3.797,9.955,0,13.753
		s-9.955,3.798-13.752,0c-3.799-3.798-3.799-9.955,0-13.753C1173.75,193.844,1179.908,193.844,1183.705,197.642"/>
	
		<path style="clip-path:url(#SVGID_2_);fill:none;stroke:#FFFFFF;stroke-linecap:round;stroke-linejoin:round;stroke-miterlimit:10;" d="
		M1183.705,197.642c3.797,3.798,3.797,9.955,0,13.753s-9.955,3.798-13.752,0c-3.799-3.798-3.799-9.955,0-13.753
		C1173.75,193.844,1179.908,193.844,1183.705,197.642"/>
	<path style="clip-path:url(#SVGID_2_);fill:#FFFFFF;" d="M1232.119,171.327c2.77,2.771,2.77,7.262,0,10.032
		c-2.771,2.771-7.262,2.771-10.033,0c-2.77-2.77-2.77-7.262,0-10.032C1224.857,168.557,1229.348,168.557,1232.119,171.327"/>
	
		<path style="clip-path:url(#SVGID_2_);fill:none;stroke:#FFFFFF;stroke-linecap:round;stroke-linejoin:round;stroke-miterlimit:10;" d="
		M1232.119,171.327c2.77,2.771,2.77,7.262,0,10.032c-2.771,2.771-7.262,2.771-10.033,0c-2.77-2.77-2.77-7.262,0-10.032
		C1224.857,168.557,1229.348,168.557,1232.119,171.327"/>
	<path style="clip-path:url(#SVGID_2_);fill:#FFFFFF;" d="M1208.48,235.249c2.77,2.771,2.77,7.262,0,10.032
		c-2.77,2.771-7.262,2.771-10.031,0c-2.771-2.77-2.771-7.262,0-10.032C1201.219,232.479,1205.711,232.479,1208.48,235.249"/>
	
		<path style="clip-path:url(#SVGID_2_);fill:none;stroke:#FFFFFF;stroke-linecap:round;stroke-linejoin:round;stroke-miterlimit:10;" d="
		M1208.48,235.249c2.77,2.771,2.77,7.262,0,10.032c-2.77,2.771-7.262,2.771-10.031,0c-2.771-2.77-2.771-7.262,0-10.032
		C1201.219,232.479,1205.711,232.479,1208.48,235.249"/>
	
		<line style="clip-path:url(#SVGID_2_);fill:none;stroke:#FFFFFF;stroke-width:3;stroke-linecap:round;stroke-linejoin:round;stroke-miterlimit:10;" x1="1182.641" y1="212.317" x2="1199.227" y2="234.576"/>
	
		<line style="clip-path:url(#SVGID_2_);fill:none;stroke:#FFFFFF;stroke-width:3;stroke-linecap:round;stroke-linejoin:round;stroke-miterlimit:10;" x1="1167.488" y1="201.807" x2="1141.691" y2="194.321"/>
	
		<line style="clip-path:url(#SVGID_2_);fill:none;stroke:#FFFFFF;stroke-width:3;stroke-linecap:round;stroke-linejoin:round;stroke-miterlimit:10;" x1="1185.314" y1="199.763" x2="1220.912" y2="179.812"/>
	<path style="clip-path:url(#SVGID_2_);fill:#FFFFFF;" d="M1170.48,145.327c2.77,2.771,2.77,7.262,0,10.032
		c-2.77,2.771-7.262,2.771-10.031,0c-2.771-2.77-2.771-7.262,0-10.032C1163.219,142.557,1167.711,142.557,1170.48,145.327"/>
	
		<path style="clip-path:url(#SVGID_2_);fill:none;stroke:#FFFFFF;stroke-linecap:round;stroke-linejoin:round;stroke-miterlimit:10;" d="
		M1170.48,145.327c2.77,2.771,2.77,7.262,0,10.032c-2.77,2.771-7.262,2.771-10.031,0c-2.771-2.77-2.771-7.262,0-10.032
		C1163.219,142.557,1167.711,142.557,1170.48,145.327"/>
	
		<line style="clip-path:url(#SVGID_2_);fill:none;stroke:#FFFFFF;stroke-width:3;stroke-linecap:round;stroke-linejoin:round;stroke-miterlimit:10;" x1="1174.832" y1="195" x2="1166.92" y2="157.287"/>
	
		<line style="clip-path:url(#SVGID_2_);fill:none;stroke:#FFFFFF;stroke-width:3;stroke-linecap:round;stroke-linejoin:round;stroke-miterlimit:10;" x1="882.715" y1="513.387" x2="1170.123" y2="211.561"/>
	<path style="clip-path:url(#SVGID_2_);fill:#FFFFFF;" d="M1675.238,411.54c2.77,2.77,2.77,7.262,0,10.032
		c-2.77,2.77-7.262,2.77-10.031,0c-2.771-2.771-2.771-7.262,0-10.032C1667.977,408.769,1672.469,408.769,1675.238,411.54"/>
	
		<path style="clip-path:url(#SVGID_2_);fill:none;stroke:#FFFFFF;stroke-linecap:round;stroke-linejoin:round;stroke-miterlimit:10;" d="
		M1675.238,411.54c2.77,2.77,2.77,7.262,0,10.032c-2.77,2.77-7.262,2.77-10.031,0c-2.771-2.771-2.771-7.262,0-10.032
		C1667.977,408.769,1672.469,408.769,1675.238,411.54"/>
	<path style="clip-path:url(#SVGID_2_);fill:#FFFFFF;" d="M1716.5,440.918c3.799,3.797,3.799,9.955,0,13.752
		c-3.797,3.798-9.955,3.798-13.752,0c-3.797-3.797-3.797-9.955,0-13.752C1706.545,437.121,1712.703,437.121,1716.5,440.918"/>
	
		<path style="clip-path:url(#SVGID_2_);fill:none;stroke:#FFFFFF;stroke-linecap:round;stroke-linejoin:round;stroke-miterlimit:10;" d="
		M1716.5,440.918c3.799,3.797,3.799,9.955,0,13.752c-3.797,3.798-9.955,3.798-13.752,0c-3.797-3.797-3.797-9.955,0-13.752
		C1706.545,437.121,1712.703,437.121,1716.5,440.918"/>
	<path style="clip-path:url(#SVGID_2_);fill:#FFFFFF;" d="M1748.275,440.148c2.771,2.77,2.771,7.262,0,10.032
		c-2.77,2.77-7.26,2.77-10.031,0c-2.77-2.771-2.77-7.262,0-10.032C1741.016,437.377,1745.506,437.377,1748.275,440.148"/>
	
		<path style="clip-path:url(#SVGID_2_);fill:none;stroke:#FFFFFF;stroke-linecap:round;stroke-linejoin:round;stroke-miterlimit:10;" d="
		M1748.275,440.148c2.771,2.77,2.771,7.262,0,10.032c-2.77,2.77-7.26,2.77-10.031,0c-2.77-2.771-2.77-7.262,0-10.032
		C1741.016,437.377,1745.506,437.377,1748.275,440.148"/>
	<path style="clip-path:url(#SVGID_2_);fill:#FFFFFF;" d="M1712.01,484.604c2.77,2.77,2.77,7.262,0,10.032
		c-2.77,2.77-7.262,2.77-10.031,0c-2.771-2.771-2.771-7.262,0-10.032C1704.748,481.833,1709.24,481.833,1712.01,484.604"/>
	
		<path style="clip-path:url(#SVGID_2_);fill:none;stroke:#FFFFFF;stroke-linecap:round;stroke-linejoin:round;stroke-miterlimit:10;" d="
		M1712.01,484.604c2.77,2.77,2.77,7.262,0,10.032c-2.77,2.77-7.262,2.77-10.031,0c-2.771-2.771-2.771-7.262,0-10.032
		C1704.748,481.833,1709.24,481.833,1712.01,484.604"/>
	
		<line style="clip-path:url(#SVGID_2_);fill:none;stroke:#FFFFFF;stroke-width:3;stroke-linecap:round;stroke-linejoin:round;stroke-miterlimit:10;" x1="1709.014" y1="457.5" x2="1707.439" y2="482.54"/>
	
		<line style="clip-path:url(#SVGID_2_);fill:none;stroke:#FFFFFF;stroke-width:3;stroke-linecap:round;stroke-linejoin:round;stroke-miterlimit:10;" x1="1702.004" y1="441.752" x2="1675.781" y2="420.963"/>
	
		<line style="clip-path:url(#SVGID_2_);fill:none;stroke:#FFFFFF;stroke-width:3;stroke-linecap:round;stroke-linejoin:round;stroke-miterlimit:10;" x1="1719.32" y1="447.036" x2="1736.188" y2="445.717"/>
	<path style="clip-path:url(#SVGID_2_);fill:#FFFFFF;" d="M1717.271,391.159c2.77,2.77,2.77,7.262,0,10.032
		c-2.771,2.771-7.262,2.771-10.033,0c-2.77-2.771-2.77-7.262,0-10.032C1710.01,388.388,1714.5,388.388,1717.271,391.159"/>
	
		<path style="clip-path:url(#SVGID_2_);fill:none;stroke:#FFFFFF;stroke-linecap:round;stroke-linejoin:round;stroke-miterlimit:10;" d="
		M1717.271,391.159c2.77,2.771,2.77,7.262,0,10.032c-2.771,2.771-7.262,2.771-10.033,0c-2.77-2.771-2.77-7.262,0-10.032
		C1710.01,388.388,1714.5,388.388,1717.271,391.159"/>
	
		<line style="clip-path:url(#SVGID_2_);fill:none;stroke:#FFFFFF;stroke-width:3;stroke-linecap:round;stroke-linejoin:round;stroke-miterlimit:10;" x1="1710.119" y1="438.083" x2="1711.895" y2="403.259"/>
	
		<line style="clip-path:url(#SVGID_2_);fill:none;stroke:#FFFFFF;stroke-width:3;stroke-linecap:round;stroke-linejoin:round;stroke-miterlimit:10;" x1="1338.188" y1="462.853" x2="1699.908" y2="448.188"/>
</g>
</svg>
