<?xml version="1.0" encoding="iso-8859-1"?>
<!-- Generator: Adobe Illustrator 16.0.0, SVG Export Plug-In . SVG Version: 6.00 Build 0)  -->
<!DOCTYPE svg PUBLIC "-//W3C//DTD SVG 1.1//EN" "http://www.w3.org/Graphics/SVG/1.1/DTD/svg11.dtd">
<svg version="1.1" id="Layer_1" xmlns="http://www.w3.org/2000/svg" xmlns:xlink="http://www.w3.org/1999/xlink" x="0px" y="0px"
	 width="526px" height="174px" viewBox="0 0 526 174" style="enable-background:new 0 0 526 174;" xml:space="preserve">
<g>
	<path style="fill:#FFFFFF;" d="M83.003,134.119c0,1.57-1.397,2.969-2.969,2.969c-0.874,0-1.572-0.35-2.096-0.873l-13.272,9.779
		c0.349,0.699,0.524,1.572,0.524,2.445c0,2.27-1.921,4.365-4.366,4.365c-2.096,0-4.017-1.746-4.192-3.842L8.78,151.408
		c0,0.699-0.699,1.396-1.572,1.396c-0.873,0-1.746-0.697-1.746-1.746c0-0.873,0.698-1.396,1.397-1.572l1.222-28.117
		c-1.747-0.174-2.969-1.572-2.969-3.318s1.397-3.143,2.969-3.318L7.907,71.596c-1.397-0.174-2.445-1.397-2.445-2.794
		s1.047-2.62,2.445-2.794L7.732,27.586c-1.397-0.175-2.445-1.397-2.445-2.794c0-1.572,1.223-2.969,2.794-2.969
		s2.794,1.048,2.969,2.619l37.199-0.524c0.175-0.873,1.048-1.571,1.921-1.571c1.048,0,1.921,0.873,1.921,1.921
		c0,0.174,0,0.524-0.175,0.698l19.036,14.146c1.223-1.571,3.144-2.445,5.065-2.445c3.842,0,6.811,2.969,6.811,6.637
		c0,3.493-2.794,6.287-6.113,6.461l0.524,20.957c0.524,0.175,0.873,0.525,0.873,1.049c0,0.523-0.349,0.873-0.873,1.047l2.969,58.332
		C81.781,131.324,83.003,132.547,83.003,134.119z M8.78,121.369L7.732,148.09l6.986-26.371l-3.318-1.746
		C10.701,120.846,9.828,121.369,8.78,121.369z M8.431,150.012l25.847-15.02c-0.175-0.35-0.175-0.873-0.175-1.398
		c0-0.523,0-0.873,0.175-1.396l-18.862-10.129l-7.335,27.594C8.256,149.662,8.256,149.836,8.431,150.012z M8.431,28.11l0.174,37.897
		c0.524,0.174,1.048,0.349,1.572,0.698l5.239-4.541L8.431,28.11z M8.605,71.596l0.175,43.136c0.524,0,0.873,0.176,1.222,0.176
		l9.431-15.719c-1.396-1.047-2.445-2.795-2.445-4.715c0-1.922,1.048-3.668,2.62-4.541L9.304,71.422
		C9.129,71.422,8.955,71.596,8.605,71.596z M8.78,150.709l47.852-2.445c0-0.697,0.175-1.396,0.35-1.92l-16.766-10.654
		c-0.698,0.873-1.572,1.398-2.794,1.398c-1.048,0-2.096-0.525-2.794-1.398L8.78,150.535V150.709z M9.129,27.586l6.811,34.055
		l17.29-15.019c-0.524-0.524-0.699-1.223-0.699-1.921c0-0.699,0.175-1.223,0.524-1.747L10.352,26.713
		C10.002,27.062,9.479,27.412,9.129,27.586z M10.002,71.072l10.13,18.512c0.349-0.174,0.523-0.174,0.873-0.35l-5.414-26.37
		l-5.065,4.366c0.35,0.524,0.524,1.048,0.524,1.572C11.05,69.675,10.526,70.548,10.002,71.072z M11.924,118.051
		c0,0.523-0.174,0.873-0.35,1.223l3.318,1.746l5.763-21.307c-0.174,0-0.349-0.174-0.523-0.35l-9.606,15.895
		C11.4,115.955,11.924,117.004,11.924,118.051z M48.25,24.618L11.05,25.142c0,0.349-0.174,0.698-0.349,1.048l22.704,16.241
		c0.524-0.698,1.572-1.222,2.445-1.222c0.699,0,1.223,0.174,1.747,0.524L48.773,25.49C48.599,25.316,48.424,24.966,48.25,24.618z
		 M15.592,121.369l19.036,10.305c0.349-0.523,0.873-0.873,1.397-1.223L24.324,99.889c-0.524,0-1.223,0.174-1.747,0.174
		c-0.35,0-0.874,0-1.223-0.174L15.592,121.369z M16.115,62.34l5.414,26.72c0.349,0,0.698,0,1.048,0s0.698,0,1.048,0l11.177-41.216
		c-0.524-0.174-0.874-0.349-1.223-0.698L16.115,62.34z M35.326,48.02L24.324,89.234c1.396,0.525,2.445,1.398,3.144,2.621
		l6.636-2.969c0-0.176,0-0.525,0-0.699c0-1.397,0.873-2.445,2.27-2.62L35.675,48.02C35.5,48.02,35.5,48.02,35.326,48.02z
		 M24.848,99.539l11.701,30.736c0.174,0,0.349,0,0.524,0l-0.699-39.469c-0.873-0.174-1.571-0.523-1.921-1.223l-6.636,2.969
		c0.174,0.523,0.349,1.223,0.349,1.922C28.166,96.744,26.769,98.666,24.848,99.539z M48.948,46.972l-9.78-1.397
		c-0.349,1.222-1.397,2.27-2.794,2.445l0.699,37.374c1.222,0.174,2.445,1.397,2.445,2.794c0,1.396-1.048,2.445-2.445,2.619
		l0.698,39.295c1.223,0.174,2.271,0.873,2.794,1.922l7.859-3.318c0-0.176,0-0.35,0-0.35c0-1.049,0.699-1.746,1.571-1.922
		l2.096-49.947c-1.048-0.175-1.921-1.222-1.921-2.445c0-1.222,0.698-2.095,1.921-2.445l-1.747-23.053
		C49.647,48.369,49.123,47.845,48.948,46.972z M38.12,42.082c0.699,0.698,1.222,1.572,1.222,2.619c0,0,0,0,0,0.175l9.781,1.572
		c0.174-0.525,0.524-0.874,1.048-1.049l-0.35-19.385c-0.174,0-0.174,0-0.349,0L38.12,42.082z M58.554,144.771l-7.685-14.67
		c-0.174,0-0.35,0-0.698,0c-0.524,0-1.223-0.35-1.397-0.873l-8.034,3.318c0.175,0.35,0.175,0.697,0.175,1.047
		c0,0.525-0.175,1.049-0.349,1.572l16.765,10.654C57.68,145.295,58.204,144.945,58.554,144.771z M69.381,43.304
		c0-1.397,0.524-2.62,1.223-3.668L51.568,25.666c-0.349,0.174-0.699,0.349-1.048,0.349l0.35,19.385
		c0.524,0.175,1.048,0.524,1.223,1.049l17.464-2.62C69.556,43.654,69.381,43.479,69.381,43.304z M50.695,126.434l13.622-32.482
		c-1.921-0.875-3.144-2.795-3.144-4.891c0-1.572,0.524-2.794,1.572-3.842l-8.732-9.081c-0.35,0.174-0.699,0.349-1.223,0.349
		L50.695,126.434z M52.092,46.972c0,0.699-0.524,1.223-1.048,1.397l1.747,23.228c0.35,0,0.699,0.175,1.048,0.35l17.988-23.577
		c-1.222-1.048-1.921-2.27-2.27-3.842L52.092,46.972z M60.999,144.072l4.89-49.598c-0.35,0-0.698-0.176-1.048-0.176l-13.622,32.484
		c0.524,0.35,0.873,0.873,0.873,1.572c0,0.523-0.175,1.047-0.699,1.396l7.685,14.67c0.698-0.35,1.223-0.35,1.747-0.35
		C60.999,144.072,60.999,144.072,60.999,144.072z M72.35,48.718L54.362,72.295c0.35,0.524,0.699,1.048,0.699,1.746
		c0,0.699-0.175,1.223-0.524,1.572l8.557,9.081c1.048-0.873,2.271-1.222,3.667-1.222c0.175,0,0.524,0,0.698,0l6.986-33.881
		C73.748,49.417,73.049,49.242,72.35,48.718z M77.589,135.516c-0.349-0.35-0.523-0.873-0.523-1.396c0-1.223,0.698-2.271,1.747-2.621
		L67.984,94.475c-0.349,0-0.873,0-1.222,0h-0.175l-4.89,49.598c1.048,0.176,1.921,0.699,2.445,1.398L77.589,135.516z M76.542,70.723
		l-0.524-20.782c-0.35,0-0.699-0.175-0.874-0.175l-6.985,33.881c0.349,0,0.698,0.175,1.048,0.35l6.811-11.352
		c-0.175-0.349-0.35-0.524-0.35-0.873C75.668,71.248,76.018,70.898,76.542,70.723z M72.35,89.061c0,2.27-1.572,4.365-3.667,5.064
		l10.828,37.025l-2.794-58.157l-6.811,11.352C71.302,85.394,72.35,87.14,72.35,89.061z"/>
	<path style="fill:#FFFFFF;" d="M159.672,150.012c0,0.873-0.873,1.746-1.746,1.746c-0.874,0-1.572-0.699-1.572-1.398l-49.948-0.873
		c-0.35,1.398-1.397,2.445-2.969,2.445c-1.572,0-2.969-1.223-2.969-2.969c0-1.396,1.222-2.619,2.62-2.795l-1.397-32.656
		c-0.524-0.176-1.047-0.699-1.047-1.398s0.523-1.223,1.047-1.396l1.921-42.089c-1.746-0.35-2.969-1.746-2.969-3.493
		c0-1.921,1.397-3.493,3.144-3.668l-1.223-35.801c-1.222,0-2.096-1.048-2.096-2.271c0-1.222,1.048-2.271,2.271-2.271
		s2.27,0.874,2.27,2.096l46.106,0.698c0.175-1.571,1.571-2.969,3.318-2.969c1.921,0,3.318,1.572,3.318,3.318
		c0,1.746-1.223,3.144-2.795,3.493l1.224,16.591c0.698,0.175,1.222,0.699,1.222,1.571c0,0.699-0.698,1.397-1.571,1.397
		c-0.524,0-1.223-0.524-1.397-1.048l-19.734,1.397c0,2.095-1.572,3.667-3.493,4.017l1.747,19.735c0.873,0,1.571,0.698,1.746,1.572
		l15.368,1.397c0.35-1.223,1.397-2.271,2.795-2.271c1.746,0,2.969,1.397,2.969,2.969c0,1.397-1.048,2.62-2.271,2.794l1.048,16.765
		c0.698,0,1.223,0.699,1.223,1.398c0,0.873-0.699,1.396-1.397,1.396s-1.222-0.35-1.397-1.049l-18.687,1.049
		c0,2.096-1.746,3.668-3.668,4.018l0.874,22.004c1.571,0,2.794,1.398,2.794,2.969l17.115,2.271c0.523-1.922,2.096-3.318,4.191-3.318
		c2.271,0,4.191,1.746,4.191,4.191c0,1.92-1.572,3.666-3.493,4.016l1.747,14.67C158.974,148.439,159.672,149.139,159.672,150.012z
		 M104.311,68.627l-1.921,42.263c0.349,0,0.524,0.174,0.698,0.35l17.116-9.082l-14.845-33.705
		C105.009,68.627,104.66,68.627,104.311,68.627z M102.39,113.512l1.222,32.656c0.35,0,0.524,0,0.699,0.176l7.335-16.068
		c-2.095-1.047-3.493-3.143-3.493-5.762c0-1.572,0.698-2.969,1.572-4.191l-6.986-6.986
		C102.739,113.336,102.564,113.512,102.39,113.512z M103.263,25.666l1.222,35.801c0.35,0,0.699,0.175,1.048,0.175l14.845-27.419
		c-0.523-0.524-0.873-1.048-0.873-1.746c0-0.175,0-0.524,0.175-0.699l-15.019-6.985C104.311,25.316,103.787,25.666,103.263,25.666z
		 M103.438,112.113c0,0.35,0,0.523-0.175,0.699l6.986,7.16c1.223-1.049,2.619-1.746,4.191-1.746c1.048,0,2.096,0.348,2.794,0.697
		l5.938-10.129l-2.62-5.938l-17.115,8.906C103.438,111.939,103.438,111.939,103.438,112.113z M150.941,24.618l-45.932-0.699v0.175
		l14.845,7.16c0.523-0.698,1.048-1.047,1.921-1.047s1.571,0.523,1.921,1.397l27.419-6.811L150.941,24.618z M112.169,130.451
		l-7.161,16.066c0.175,0.176,0.35,0.35,0.524,0.35l23.228-18.861c-0.35-0.35-0.523-0.873-0.523-1.572l-7.51-0.873
		c-0.523,3.145-3.144,5.414-6.287,5.414C113.741,130.975,112.868,130.801,112.169,130.451z M105.882,68.104l15.02,33.705
		l5.589-2.969c-0.175-0.348-0.35-1.047-0.35-1.57c0-1.223,0.523-2.271,1.222-2.971l-21.131-26.195
		C106.057,68.104,106.057,68.104,105.882,68.104z M130.857,129.402c-0.699,0-1.223-0.35-1.747-0.873l-23.228,18.861
		c0.174,0.35,0.35,0.699,0.35,0.873l22.005-2.793c0-1.049,0.873-1.922,1.921-2.096L130.857,129.402z M106.93,62.864l19.909-13.273
		c-0.349-0.524-0.523-1.223-0.523-1.921c0-1.397,0.698-2.794,1.746-3.493l-5.589-9.78c-0.174,0.174-0.523,0.174-0.698,0.174
		c-0.35,0-0.523,0-0.699,0l-14.844,27.419C106.581,62.166,106.755,62.515,106.93,62.864z M131.031,73.168v-0.174l-23.402-6.637
		c-0.35,0.524-0.524,0.873-0.874,1.223l21.132,26.372c0.699-0.525,1.572-0.699,2.271-0.699c0.175,0,0.175,0,0.175,0l1.921-18.337
		C131.555,74.74,131.031,74.041,131.031,73.168z M130.507,51.687c-1.397,0-2.445-0.524-3.318-1.572l-19.91,13.272
		c0.35,0.524,0.524,1.049,0.524,1.747c0,0.174,0,0.349,0,0.524l23.402,6.636c0.175-0.349,0.699-0.699,1.048-0.873L130.507,51.687z
		 M107.978,148.789l45.233,0.873l-20.783-3.494c-0.35,0.873-1.048,1.398-2.096,1.398c-0.873,0-1.746-0.525-1.922-1.398
		L107.978,148.789z M129.808,123.814l-6.287-14.32l-5.588,9.779c1.746,1.049,2.969,3.145,2.969,5.24c0,0.174-0.175,0.35-0.175,0.35
		l7.684,0.873C128.586,124.863,129.11,124.164,129.808,123.814z M121.076,102.508l2.445,5.414l4.191-7.334
		c-0.35-0.35-0.698-0.699-0.873-1.049L121.076,102.508z M151.115,25.49l-27.244,6.811c0,0,0,0,0,0.175
		c0,0.698-0.35,1.222-0.698,1.746l5.588,9.605c0.524-0.174,1.048-0.35,1.747-0.35c1.048,0,1.921,0.35,2.794,1.048l18.513-17.988
		C151.464,26.189,151.29,25.84,151.115,25.49z M130.857,123.465l-0.874-22.004c-0.698-0.176-1.223-0.35-1.572-0.525l-4.54,7.859
		l6.462,14.67C130.507,123.465,130.681,123.465,130.857,123.465z M134.349,127.133c-0.35,1.223-1.572,2.27-2.794,2.27l-0.698,13.973
		c0.349,0.174,0.872,0.35,1.048,0.697l20.083-12.574c-0.349-0.697-0.523-1.223-0.523-1.92c0-0.176,0-0.176,0-0.176L134.349,127.133z
		 M131.031,93.252c0.698,0.174,1.397,0.523,1.922,0.873l9.954-9.78l-9.081-9.605c-0.175,0.174-0.524,0.174-0.873,0.174
		L131.031,93.252z M155.656,133.594c-1.397,0-2.62-0.523-3.318-1.57l-19.909,12.572c0,0.35,0.175,0.525,0.175,0.875l23.751,3.842
		c0.175-0.35,0.524-0.699,1.048-0.873L155.656,133.594z M134.349,96.744l18.687-1.047c0-0.176,0-0.35,0.176-0.523L143.43,84.87
		l-9.954,9.779C133.826,95.174,134.174,96.047,134.349,96.744z M155.481,44.527l-1.223-16.766c-0.698,0-1.396-0.349-2.096-0.873
		l-18.512,18.163c0.523,0.524,0.873,1.222,0.873,1.921l19.909-1.397C154.608,45.051,154.957,44.701,155.481,44.527z M150.067,75.089
		l-15.543-1.396c0,0.174,0,0.349-0.175,0.524l9.081,9.605l7.161-6.986C150.242,76.312,150.067,75.788,150.067,75.089z
		 M153.91,94.648l-1.048-16.59c-0.699-0.175-1.223-0.35-1.747-0.699l-7.16,6.986l9.78,10.479
		C153.735,94.648,153.91,94.648,153.91,94.648z"/>
	<path style="fill:#FFFFFF;" d="M255.727,105.303l-1.049,24.973c0.699,0.176,1.398,0.875,1.398,1.748
		c0,1.221-0.875,2.096-1.922,2.096c-0.35,0-0.697-0.176-1.047-0.35l-11.352,11.525c0.523,0.525,0.872,1.223,0.872,2.096
		c0,1.748-1.571,3.318-3.317,3.318c-1.397,0-2.62-0.873-3.144-2.096l-17.814,4.715c0,0,0,0,0,0.176c0,1.047-0.872,1.922-1.921,1.922
		c-1.048,0-1.921-0.875-1.921-1.922c0-0.176,0-0.176,0-0.35l-18.163-5.588c-0.523,1.047-1.746,1.92-2.969,1.92
		c-1.746,0-3.318-1.396-3.318-3.143c0-1.049,0.524-1.922,1.397-2.619l-9.78-15.893c-0.35,0-0.523,0-0.873,0
		c-1.048,0-2.096-0.875-2.096-2.096c0-0.873,0.698-1.748,1.746-1.922l-1.746-34.404c-0.699,0-1.397-0.699-1.397-1.572
		c0-0.698,0.698-1.397,1.397-1.572l0.524-35.453c-1.048-0.174-1.922-1.222-1.922-2.27c0-1.223,1.048-2.271,2.271-2.271
		c0.175,0,0.35,0,0.524,0l4.54-10.478c-0.873-0.525-1.396-1.397-1.396-2.445c0-1.397,1.223-2.794,2.794-2.794
		c1.048,0,1.921,0.698,2.271,1.397l24.8-11.003c0-0.174-0.176-0.524-0.176-0.698c0-1.572,1.224-2.794,2.795-2.794
		c1.397,0,2.619,1.222,2.619,2.794l17.814,2.62c0.174-0.874,1.048-1.572,2.095-1.572c1.224,0,2.271,1.048,2.271,2.27
		c0,0.524-0.349,1.048-0.698,1.572l8.383,10.478c0.874-0.524,1.746-0.873,2.795-0.873c2.619,0,4.715,2.096,4.715,4.715
		c0,2.096-1.746,4.017-3.842,4.541l4.191,30.388c1.047,0,1.746,0.874,1.746,1.747c0,1.048-0.699,1.921-1.746,1.921
		c-1.049,0-1.748-0.699-1.922-1.572l-23.228-1.572c-0.349,1.747-1.921,3.144-3.667,3.144c-2.096,0-3.668-1.572-3.668-3.668
		c0-1.747,1.224-3.318,2.97-3.668l-1.572-24.624c-0.873-0.175-1.397-0.699-1.397-1.572c0-0.35,0-0.524,0.176-0.699l-4.891-4.541
		c-0.524,0.349-1.048,0.524-1.746,0.524c-0.524,0-0.874,0-1.223-0.175l-4.891,7.335c0.35,0.349,0.699,0.873,0.699,1.397
		c0,1.048-0.873,1.747-1.747,1.921l-2.095,26.896c2.095,0.349,3.842,2.27,3.842,4.541s-1.747,4.192-3.842,4.541l3.317,41.74
		c0.699,0,1.223,0.523,1.223,1.223c0,0.174-0.175,0.174-0.175,0.35l5.414,3.318c0.524-0.525,1.048-0.873,1.747-0.873
		c0.349,0,0.698,0.174,1.048,0.348l3.318-5.588c-0.35-0.35-0.524-0.873-0.524-1.223c0-0.873,0.698-1.572,1.396-1.746l0.176-20.957
		c-0.699-0.176-1.224-0.699-1.224-1.572s0.699-1.572,1.572-1.572s1.397,0.525,1.572,1.398l26.022,0.873
		c0.174-1.223,1.396-2.271,2.793-2.271c1.398,0,2.795,1.223,2.795,2.795C258.346,103.904,257.123,105.127,255.727,105.303z
		 M179.931,50.813l-0.524,35.627l13.448-23.228c-0.524-0.349-0.874-1.048-0.874-1.747c0-0.524,0.176-0.873,0.35-1.222l-11.177-9.955
		C180.804,50.465,180.28,50.639,179.931,50.813z M179.407,89.41l1.747,34.404c0.174,0,0.35,0,0.698,0.174l7.51-10.129
		c-1.571-1.223-2.445-3.143-2.445-5.238c0-2.271,1.048-4.191,2.62-5.414l-9.955-13.797H179.407z M180.629,87.838
		c0,0.523-0.175,0.873-0.523,1.049l9.954,13.795c1.048-0.523,2.097-1.047,3.493-1.047l0.35-37.897c-0.175,0-0.35-0.174-0.524-0.174
		l-13.272,23.228C180.455,86.965,180.629,87.488,180.629,87.838z M180.804,46.623c0.699,0.349,1.048,1.048,1.048,1.921
		c0,0.35-0.175,0.874-0.349,1.222l11.177,9.955c0.175-0.175,0.349-0.35,0.524-0.35l-6.812-23.228c0,0-0.175,0-0.35,0
		c-0.35,0-0.523,0-0.873,0L180.804,46.623z M191.981,143.375c0.35-0.176,0.699-0.176,1.048-0.176l0.176-15.717l-10.305-1.049
		c-0.175,0.35-0.349,0.699-0.698,1.049L191.981,143.375z M193.205,126.957l0.174-11.525c-1.222,0-2.445-0.35-3.492-1.049
		l-7.511,9.955c0.35,0.35,0.524,0.873,0.524,1.398L193.205,126.957z M187.091,35.969l6.812,23.228c0.174,0,0.174,0,0.349,0
		s0.175,0,0.35,0l6.287-20.608c-1.921-0.698-3.144-2.27-3.144-4.366l-8.906-0.349C188.663,34.747,187.964,35.62,187.091,35.969z
		 M188.663,32.651c0,0.174,0.176,0.35,0.176,0.524l8.906,0.35c0.35-2.445,2.271-4.192,4.716-4.192c1.222,0,2.27,0.35,3.143,1.048
		l8.034-8.557l-0.175-0.175L188.663,32.651z M193.903,127.656l-0.175,15.543c0.698,0,1.222,0.176,1.571,0.699l14.496-13.973
		c0-0.174,0-0.348,0-0.523L193.903,127.656z M193.903,126.957l15.893,1.748l0.174-0.176l-12.05-14.32
		c-1.048,0.699-2.445,1.223-3.843,1.223L193.903,126.957z M202.46,81.726c0-1.572,0.873-2.794,1.921-3.667l-9.256-14.496
		c-0.176,0-0.35,0.174-0.524,0.174l-0.35,37.897c0.874,0,1.572,0.174,2.271,0.523l8.208-16.59
		C203.508,84.87,202.46,83.472,202.46,81.726z M208.573,46.797l-4.191-8.208c-0.524,0.175-1.223,0.35-1.921,0.35
		c-0.35,0-0.699,0-1.048-0.174l-6.113,20.607c0.175,0.175,0.35,0.175,0.524,0.35l12.225-10.479
		c-0.174-0.174-0.349-0.524-0.349-0.873C207.7,47.67,208.048,47.146,208.573,46.797z M209.271,50.29
		c-0.35-0.174-0.523-0.349-0.873-0.524l-12.225,10.479c0.174,0.35,0.349,0.698,0.349,1.222c0,0.699-0.349,1.223-0.698,1.747
		l9.081,14.496c0.698-0.35,1.397-0.524,2.271-0.524L209.271,50.29z M217.13,134.469c0-0.35,0-0.699,0.174-0.875l-5.413-3.318
		c-0.175,0.176-0.524,0.35-0.874,0.35c-0.174,0-0.523-0.174-0.698-0.35l-14.495,13.973c0.174,0.174,0.174,0.348,0.35,0.348
		l20.957-9.43C217.13,134.992,217.13,134.643,217.13,134.469z M214.685,152.631c0.35-0.699,1.048-1.049,1.746-1.223l2.271-14.67
		c-0.523-0.176-0.873-0.523-1.222-1.049l-21.133,9.605c0.175,0.35,0.175,0.699,0.175,1.049c0,0.174,0,0.35,0,0.523L214.685,152.631z
		 M207.175,86.266c-0.698,0-1.223-0.174-1.746-0.349l-8.208,16.59c2.095,1.223,3.492,3.492,3.492,6.113
		c0,1.92-0.873,3.842-2.271,5.064l12.051,14.32L207.175,86.266z M215.383,39.288c-0.523-0.524-0.873-1.223-0.873-2.096
		c0,0,0,0,0-0.174l-7.335-1.572c-0.349,1.222-1.048,2.271-2.096,2.794l4.017,8.208c0.175,0,0.35,0,0.523,0c0.35,0,0.699,0,0.874,0
		L215.383,39.288z M206.127,30.905c0.699,0.873,1.223,1.92,1.223,3.143c0,0.35,0,0.524,0,0.699l7.335,1.572
		c0.175-0.874,1.048-1.397,1.921-1.572l-1.048-11.875c-0.523,0-1.048-0.175-1.396-0.524L206.127,30.905z M218.352,20.95
		c-0.349,0.874-1.048,1.572-2.096,1.921l1.048,11.701c0.699,0.175,1.397,0.524,1.747,1.048l17.115-11.177
		c0-0.174-0.175-0.524-0.175-0.873L218.352,20.95z M235.992,147.914c0-0.174,0-0.348,0-0.523c0-0.523,0.175-1.047,0.349-1.57
		l-15.019-9.781c-0.35,0.523-1.049,0.873-1.921,0.873l-2.271,14.67c0.523,0.176,0.873,0.525,1.048,1.049L235.992,147.914z
		 M236.515,25.142l-17.114,11.002c0.174,0.35,0.349,0.699,0.349,1.048c0,0.699-0.175,1.048-0.523,1.572l5.064,4.541
		c0.175-0.174,0.524-0.35,0.873-0.35c0.175,0,0.35,0,0.524,0l11.177-17.639C236.69,25.142,236.69,25.142,236.515,25.142z
		 M220.972,132.721c0.524,0.35,0.873,1.049,0.873,1.748c0,0.348,0,0.697-0.175,0.871l15.02,9.955c0.175-0.174,0.35-0.35,0.524-0.523
		l-11.526-17.639c-0.175,0-0.35,0.174-0.699,0.174c-0.174,0-0.35-0.174-0.523-0.174L220.972,132.721z M225.513,102.857
		l-0.175,20.957c0.35,0,0.698,0.174,0.873,0.35l9.257-6.287c-0.524-0.873-0.699-1.746-0.699-2.619c0-1.223,0.35-2.445,1.048-3.318
		l-9.78-9.258C225.862,102.857,225.688,102.857,225.513,102.857z M225.688,46.099l1.571,24.624c0.873,0,1.746,0.35,2.271,0.874
		l6.112-6.461c-1.048-1.048-1.746-2.62-1.746-4.366s0.698-3.318,1.746-4.541l-9.605-10.305
		C225.862,45.923,225.688,46.099,225.688,46.099z M238.96,41.383l-0.873-15.543c-0.35,0-0.524-0.174-0.698-0.174l-11.178,17.639
		c0.175,0.174,0.35,0.35,0.35,0.524L238.96,41.383z M226.211,126.783l11.526,17.639c0.523-0.174,0.873-0.35,1.223-0.35l0.35-23.75
		c-1.397-0.176-2.62-0.873-3.493-1.922l-9.256,6.463c0.175,0.174,0.175,0.348,0.175,0.697S226.561,126.434,226.211,126.783z
		 M238.96,42.082l-12.225,2.445c0,0.349-0.175,0.698-0.35,0.873l9.78,10.479c1.048-0.873,2.271-1.397,3.492-1.572L238.96,42.082z
		 M252.758,102.682l-26.022-0.873c0,0.176-0.175,0.176-0.175,0.35l9.779,9.256c0.874-0.873,2.097-1.396,3.493-1.396
		s2.794,0.699,3.668,1.746l9.606-7.859C252.932,103.557,252.758,103.207,252.758,102.682z M254.504,75.089l-9.78-9.43
		c-1.048,1.047-2.62,1.571-4.366,1.571c-1.572,0-3.144-0.524-4.191-1.571l-6.112,6.287c0.523,0.698,0.872,1.397,0.872,2.271
		l23.228,1.572C254.154,75.613,254.328,75.264,254.504,75.089z M247.693,35.969L239.31,25.49c-0.175,0.175-0.35,0.175-0.524,0.35
		l0.873,15.543l6.637-1.397c0-0.174,0-0.35,0-0.524C246.295,38.064,246.82,36.842,247.693,35.969z M246.47,40.685l-6.812,1.222
		l0.699,12.4c1.048,0,1.921,0.175,2.794,0.524l5.414-11.352C247.518,42.78,246.82,41.907,246.47,40.685z M241.406,144.771
		l11.176-11.527c-0.174-0.348-0.35-0.697-0.35-1.221c0-0.35,0.176-0.873,0.525-1.223l-9.956-11.527
		c-0.698,0.523-1.746,0.873-2.794,1.049l-0.35,23.75C240.358,144.248,240.881,144.422,241.406,144.771z M253.98,130.102
		l1.047-24.799c-0.523-0.176-1.047-0.35-1.396-0.873l-9.606,7.857c0.523,0.875,0.873,1.748,0.873,2.971
		c0,1.396-0.523,2.619-1.571,3.492l9.781,11.701C253.457,130.275,253.631,130.275,253.98,130.102z M251.186,44.002h-0.174
		c-0.7,0-1.223,0-1.748-0.349l-5.588,11.526c1.92,1.048,3.317,3.144,3.317,5.589c0,1.747-0.698,3.143-1.746,4.366l9.606,9.605
		c0.174-0.175,0.348-0.175,0.523-0.35L251.186,44.002z"/>
	<path style="fill:#FFFFFF;" d="M335.016,150.012c0,0.873-0.873,1.746-1.746,1.746s-1.572-0.699-1.572-1.398l-49.947-0.873
		c-0.35,1.398-1.396,2.445-2.969,2.445s-2.969-1.223-2.969-2.969c0-1.396,1.223-2.619,2.619-2.795l-1.396-32.656
		c-0.525-0.176-1.049-0.699-1.049-1.398s0.523-1.223,1.049-1.396l1.92-42.089c-1.746-0.35-2.969-1.746-2.969-3.493
		c0-1.921,1.398-3.493,3.145-3.668l-1.223-35.801c-1.223,0-2.096-1.048-2.096-2.271c0-1.222,1.047-2.271,2.27-2.271
		s2.271,0.874,2.271,2.096l46.105,0.698c0.174-1.571,1.572-2.969,3.318-2.969c1.92,0,3.318,1.572,3.318,3.318
		c0,1.746-1.223,3.144-2.795,3.493l1.223,16.591c0.699,0.175,1.223,0.699,1.223,1.571c0,0.699-0.699,1.397-1.572,1.397
		c-0.523,0-1.223-0.524-1.396-1.048l-19.734,1.397c0,2.095-1.572,3.667-3.494,4.017l1.748,19.735c0.873,0,1.57,0.698,1.746,1.572
		l15.367,1.397c0.35-1.223,1.398-2.271,2.795-2.271c1.746,0,2.969,1.397,2.969,2.969c0,1.397-1.047,2.62-2.27,2.794l1.047,16.765
		c0.699,0,1.223,0.699,1.223,1.398c0,0.873-0.699,1.396-1.396,1.396c-0.699,0-1.223-0.35-1.398-1.049l-18.686,1.049
		c0,2.096-1.746,3.668-3.668,4.018l0.873,22.004c1.572,0,2.795,1.398,2.795,2.969l17.115,2.271c0.523-1.922,2.096-3.318,4.191-3.318
		c2.27,0,4.191,1.746,4.191,4.191c0,1.92-1.572,3.666-3.494,4.016l1.748,14.67C334.318,148.439,335.016,149.139,335.016,150.012z
		 M279.654,68.627l-1.922,42.263c0.35,0,0.525,0.174,0.699,0.35l17.115-9.082l-14.844-33.705
		C280.354,68.627,280.004,68.627,279.654,68.627z M277.732,113.512l1.223,32.656c0.35,0,0.525,0,0.699,0.176l7.336-16.068
		c-2.096-1.047-3.494-3.143-3.494-5.762c0-1.572,0.699-2.969,1.572-4.191l-6.986-6.986
		C278.082,113.336,277.908,113.512,277.732,113.512z M278.607,25.666l1.221,35.801c0.35,0,0.699,0.175,1.049,0.175l14.844-27.419
		c-0.523-0.524-0.873-1.048-0.873-1.746c0-0.175,0-0.524,0.176-0.699l-15.02-6.985C279.654,25.316,279.131,25.666,278.607,25.666z
		 M278.781,112.113c0,0.35,0,0.523-0.174,0.699l6.984,7.16c1.223-1.049,2.619-1.746,4.191-1.746c1.049,0,2.096,0.348,2.795,0.697
		l5.938-10.129l-2.619-5.938l-17.115,8.906C278.781,111.939,278.781,111.939,278.781,112.113z M326.285,24.618l-45.932-0.699v0.175
		l14.844,7.16c0.523-0.698,1.049-1.047,1.922-1.047s1.572,0.523,1.92,1.397l27.42-6.811L326.285,24.618z M287.514,130.451
		l-7.16,16.066c0.174,0.176,0.35,0.35,0.523,0.35l23.227-18.861c-0.35-0.35-0.523-0.873-0.523-1.572l-7.51-0.873
		c-0.523,3.145-3.143,5.414-6.287,5.414C289.084,130.975,288.211,130.801,287.514,130.451z M281.227,68.104l15.02,33.705
		l5.588-2.969c-0.174-0.348-0.35-1.047-0.35-1.57c0-1.223,0.525-2.271,1.223-2.971l-21.131-26.195
		C281.4,68.104,281.4,68.104,281.227,68.104z M306.201,129.402c-0.699,0-1.223-0.35-1.748-0.873l-23.227,18.861
		c0.174,0.35,0.35,0.699,0.35,0.873l22.004-2.793c0-1.049,0.873-1.922,1.922-2.096L306.201,129.402z M282.273,62.864l19.91-13.273
		c-0.35-0.524-0.523-1.223-0.523-1.921c0-1.397,0.697-2.794,1.746-3.493l-5.59-9.78c-0.174,0.174-0.523,0.174-0.697,0.174
		c-0.35,0-0.523,0-0.699,0l-14.844,27.419C281.926,62.166,282.1,62.515,282.273,62.864z M306.375,73.168v-0.174l-23.402-6.637
		c-0.35,0.524-0.523,0.873-0.873,1.223l21.131,26.372c0.699-0.525,1.572-0.699,2.271-0.699c0.174,0,0.174,0,0.174,0l1.922-18.337
		C306.898,74.74,306.375,74.041,306.375,73.168z M305.852,51.687c-1.398,0-2.445-0.524-3.318-1.572l-19.91,13.272
		c0.35,0.524,0.523,1.049,0.523,1.747c0,0.174,0,0.349,0,0.524l23.402,6.636c0.176-0.349,0.699-0.699,1.049-0.873L305.852,51.687z
		 M283.322,148.789l45.232,0.873l-20.783-3.494c-0.35,0.873-1.047,1.398-2.096,1.398c-0.873,0-1.746-0.525-1.922-1.398
		L283.322,148.789z M305.152,123.814l-6.287-14.32l-5.588,9.779c1.746,1.049,2.969,3.145,2.969,5.24c0,0.174-0.176,0.35-0.176,0.35
		l7.684,0.873C303.93,124.863,304.453,124.164,305.152,123.814z M296.42,102.508l2.445,5.414l4.191-7.334
		c-0.35-0.35-0.699-0.699-0.873-1.049L296.42,102.508z M326.459,25.49l-27.244,6.811c0,0,0,0,0,0.175
		c0,0.698-0.35,1.222-0.699,1.746l5.588,9.605c0.525-0.174,1.049-0.35,1.748-0.35c1.047,0,1.92,0.35,2.793,1.048l18.514-17.988
		C326.809,26.189,326.633,25.84,326.459,25.49z M306.201,123.465l-0.875-22.004c-0.697-0.176-1.223-0.35-1.572-0.525l-4.539,7.859
		l6.461,14.67C305.852,123.465,306.025,123.465,306.201,123.465z M309.693,127.133c-0.35,1.223-1.572,2.27-2.795,2.27l-0.697,13.973
		c0.348,0.174,0.871,0.35,1.047,0.697l20.084-12.574c-0.35-0.697-0.523-1.223-0.523-1.92c0-0.176,0-0.176,0-0.176L309.693,127.133z
		 M306.375,93.252c0.697,0.174,1.396,0.523,1.922,0.873l9.953-9.78l-9.08-9.605c-0.176,0.174-0.525,0.174-0.873,0.174
		L306.375,93.252z M331,133.594c-1.396,0-2.621-0.523-3.318-1.57l-19.91,12.572c0,0.35,0.176,0.525,0.176,0.875l23.75,3.842
		c0.176-0.35,0.525-0.699,1.049-0.873L331,133.594z M309.693,96.744l18.686-1.047c0-0.176,0-0.35,0.176-0.523l-9.781-10.304
		l-9.953,9.779C309.17,95.174,309.518,96.047,309.693,96.744z M330.824,44.527l-1.221-16.766c-0.699,0-1.398-0.349-2.098-0.873
		l-18.512,18.163c0.523,0.524,0.873,1.222,0.873,1.921l19.91-1.397C329.951,45.051,330.301,44.701,330.824,44.527z M325.41,75.089
		l-15.543-1.396c0,0.174,0,0.349-0.174,0.524l9.08,9.605l7.162-6.986C325.586,76.312,325.41,75.788,325.41,75.089z M329.254,94.648
		l-1.049-16.59c-0.699-0.175-1.223-0.35-1.746-0.699l-7.16,6.986l9.779,10.479C329.078,94.648,329.254,94.648,329.254,94.648z"/>
	<path style="fill:#FFFFFF;" d="M428.625,150.885c0,0.873-0.699,1.572-1.572,1.572c-0.699,0-1.223-0.525-1.396-1.398l-20.783-1.396
		c-0.174,1.57-1.572,2.795-3.318,2.795c-1.92,0-3.492-1.572-3.492-3.494c0-1.396,0.873-2.619,1.92-3.143l-8.383-23.229
		c-0.174,0-0.174,0-0.35,0c-0.873,0-1.57-0.699-1.57-1.746c0-0.523,0.35-1.049,0.873-1.396l-8.559-26.023c-0.348,0-0.697,0-1.047,0
		l-2.795,28.992c1.746,0.35,2.969,1.746,2.969,3.666c0,1.922-1.223,3.318-3.143,3.668l1.223,17.988c1.047,0,1.92,1.049,1.92,2.096
		c0,1.223-1.047,2.271-2.27,2.271c-1.049,0-2.096-1.049-2.096-2.271l-12.4-2.096c-0.697,2.619-2.969,4.541-5.764,4.541
		c-3.318,0-5.938-2.619-5.938-5.938c0-2.969,2.445-5.414,5.414-5.764l-2.619-61.823c-1.396,0-2.621-1.223-2.621-2.794
		c0-1.397,1.225-2.62,2.445-2.794l-1.047-48.026c-0.873-0.175-1.398-0.874-1.398-1.747c0-1.047,0.699-1.921,1.748-1.921
		c1.047,0,1.746,0.699,1.746,1.747l17.988,1.746c0.35-1.746,1.92-3.143,4.018-3.143c2.094,0,3.842,1.746,3.842,4.017
		c0,1.572-0.873,2.969-2.096,3.493l19.734,51.345c0.174-0.174,0.35-0.174,0.35-0.174l2.793-52.568
		c-1.57-0.174-2.793-1.571-2.793-3.143c0-1.747,1.396-3.144,3.143-3.144s2.969,1.223,3.145,2.794h16.066
		c0.174-1.397,1.398-2.619,3.145-2.619c1.57,0,2.969,1.397,2.969,2.969s-1.223,2.969-2.795,3.143v67.063
		c1.572,0.176,2.969,1.572,2.969,3.318c0,1.572-1.396,2.969-2.969,3.145l1.572,48.025
		C428.1,149.486,428.625,150.186,428.625,150.885z M360.34,49.417c0-1.921,1.047-3.494,2.619-4.192l-8.033-20.083l1.047,48.026
		c0.174,0,0.174,0,0.35,0l6.811-19.56C361.561,52.91,360.34,51.163,360.34,49.417z M374.311,25.84v-0.174l-17.988-1.747
		c-0.176,0.35-0.35,0.699-0.699,0.874l8.035,20.259c0.348-0.175,0.871-0.35,1.221-0.35c0.699,0,1.398,0.175,2.096,0.524
		l9.082-16.067C375.01,28.459,374.311,27.237,374.311,25.84z M362.609,111.24c0-0.699,0.35-1.396,1.049-1.746l-7.512-30.213
		l2.621,61.299c0.174,0,0.35,0,0.523,0l4.541-27.418C363.133,112.812,362.609,112.113,362.609,111.24z M372.738,99.539
		l-2.445-15.543l-12.225-6.462c-0.35,0.524-0.697,0.873-1.396,1.048l7.684,30.736h0.174c0.35,0,0.525,0,0.875,0.176L372.738,99.539z
		 M363.832,53.783l-6.811,19.734c0.35,0.175,0.697,0.35,1.047,0.699l9.779-5.414l-2.443-14.845c-0.176,0-0.35,0-0.525,0
		C364.529,53.958,364.182,53.783,363.832,53.783z M358.592,75.962c0,0.349,0,0.699-0.174,1.048l11.701,6.113L367.848,69.5
		l-9.43,5.414C358.418,75.264,358.592,75.613,358.592,75.962z M374.66,128.529c-0.525-0.697-0.873-1.572-0.873-2.445
		c0-1.047,0.348-1.92,1.047-2.619l-9.256-10.479c-0.35,0.176-0.699,0.176-1.049,0.176l-4.715,27.594
		c1.049,0.174,1.746,0.523,2.445,1.221L374.66,128.529z M376.93,149.139c0.174-0.699,0.699-1.225,1.572-1.398l-1.223-17.988
		c-0.699,0-1.572-0.35-2.096-0.699l-12.4,13.273c1.049,1.049,1.572,2.445,1.572,4.018c0,0.35,0,0.523,0,0.697L376.93,149.139z
		 M376.58,122.418l-3.666-21.83l-6.986,9.256c0.35,0.35,0.523,0.873,0.523,1.396s-0.174,0.873-0.35,1.223l9.258,10.652
		C375.707,122.768,376.057,122.592,376.58,122.418z M366.102,53.783l2.271,14.495l3.143-1.746l-5.238-12.749H366.102z
		 M377.803,62.166c0-0.524,0-0.873,0.35-1.223l-9.955-8.383c-0.35,0.35-0.697,0.699-1.223,0.874l5.066,12.749l5.762-3.318
		C377.803,62.689,377.803,62.34,377.803,62.166z M376.58,29.507l-9.08,16.067c1.223,0.874,2.096,2.27,2.096,3.842
		c0,0.873-0.35,1.921-0.873,2.619l9.779,8.383c0.35-0.174,0.699-0.349,1.047-0.524l-1.396-30.039
		C377.629,29.682,377.104,29.682,376.58,29.507z M370.816,83.472l6.637,3.493c0.35-0.524,1.049-1.047,1.572-1.397l-7.334-18.338
		l-3.145,1.921L370.816,83.472z M373.438,98.84l4.715-6.461c-0.873-0.699-1.396-1.922-1.396-3.145c0-0.523,0.174-1.047,0.348-1.571
		l-6.111-3.318L373.438,98.84z M380.422,85.218l-0.697-20.782c-0.523-0.175-1.049-0.525-1.572-0.874l-5.764,3.318l7.336,18.512
		C379.898,85.218,380.248,85.218,380.422,85.218z M380.248,93.426c-0.523-0.174-1.047-0.35-1.572-0.697l-5.238,6.984l3.842,22.705
		h0.174L380.248,93.426z M379.375,29.682c-0.174,0-0.35,0-0.523,0l1.396,30.213c1.049,0.175,1.922,1.048,1.922,2.271
		c0,0.524-0.176,0.874-0.35,1.397l17.115,17.464c0.174,0,0.174-0.175,0.35-0.175L379.375,29.682z M384.789,87.663l13.273-4.366
		c0-0.174,0-0.349,0-0.524c0-0.524,0.174-0.874,0.523-1.222l-17.289-17.64c-0.176,0.175-0.525,0.35-0.875,0.35l0.699,20.957
		C382.693,85.218,384.09,86.266,384.789,87.663z M391.076,119.273c0.174,0,0.174,0,0.174,0c0.176,0,0.176,0,0.176,0l8.033-34.229
		c-0.523-0.35-0.873-0.699-1.223-1.223l-13.273,4.54c0,0.35,0.176,0.525,0.176,0.873c0,1.746-1.049,3.318-2.621,3.842
		L391.076,119.273z M392.648,119.973l12.398-6.287c-0.174-0.523-0.348-1.049-0.348-1.746c0-2.096,1.223-3.668,2.969-4.367
		l-6.986-22.528c0,0-0.176,0.174-0.35,0.174c0,0-0.174,0-0.174-0.174l-8.209,34.405
		C392.299,119.449,392.473,119.623,392.648,119.973z M400.682,145.645c0.35,0,0.523-0.174,0.873-0.174c0.174,0,0.35,0,0.523,0.174
		l6.113-29.164c-1.223-0.35-2.27-1.049-2.795-2.098l-12.574,6.113c0.176,0.174,0.176,0.35,0.176,0.35
		c0,0.699-0.35,1.223-0.875,1.396L400.682,145.645z M403.65,27.935l-2.795,52.743c0.176,0,0.35,0,0.35,0l12.924-23.228
		c-1.223-0.874-2.096-2.271-2.096-4.017c0-1.921,1.047-3.493,2.619-4.192L404.35,27.761
		C404.174,27.935,403.824,27.935,403.65,27.935z M401.381,84.87l6.984,22.353c0.35,0,0.699,0,1.049,0c0.348,0,0.523,0,0.697,0
		l3.145-16.066l-11.178-6.811C401.904,84.52,401.729,84.694,401.381,84.87z M414.652,57.8l-12.748,23.228
		c0,0.174,0.174,0.349,0.35,0.524l13.621-7.685c0,0-0.174-0.174-0.174-0.35c0-0.698,0.523-1.222,1.223-1.397l-0.35-13.971
		C415.875,58.149,415.352,57.974,414.652,57.8z M402.604,82.773c0,0.35,0,0.699-0.176,1.048l11.002,6.636l3.145-15.542
		c-0.176-0.174-0.35-0.174-0.35-0.35l-13.621,7.685C402.604,82.424,402.604,82.599,402.604,82.773z M408.891,116.654l-6.113,29.166
		c0.523,0.174,1.047,0.523,1.396,1.047l12.225-11.701c-0.348-0.523-0.697-1.223-0.697-1.746c0-1.223,0.697-2.096,1.572-2.619
		l-6.287-14.32c-0.525,0.174-1.049,0.174-1.572,0.174C409.238,116.654,409.064,116.654,408.891,116.654z M405.047,148.963
		l20.609,1.572c0.174-0.35,0.348-0.699,0.523-0.873l-6.637-13.623c-0.35,0.176-0.523,0.176-0.873,0.176
		c-0.699,0-1.396-0.176-1.922-0.699l-12.225,11.875C404.873,147.914,405.047,148.439,405.047,148.963z M422.512,25.142h-16.066
		c0,1.048-0.523,1.921-1.398,2.445l10.131,21.307c0.523-0.175,1.047-0.175,1.57-0.175c0.525,0,0.875,0,1.223,0.175l6.463-21.132
		C423.385,27.237,422.686,26.364,422.512,25.142z M412.906,108.621l9.779-8.559c-0.348-0.523-0.697-1.047-0.697-1.746
		c0-0.523,0.174-1.047,0.35-1.572l-8.383-5.238l-3.145,15.893C411.51,107.572,412.209,107.922,412.906,108.621z M411.684,116.131
		l6.113,14.494c0.35-0.174,0.523-0.174,0.873-0.174h0.174l5.59-28.99c-0.523-0.176-0.873-0.525-1.398-0.873l-9.779,8.557
		c0.699,0.699,1.049,1.746,1.049,2.795C414.305,113.859,413.256,115.432,411.684,116.131z M414.129,90.807l8.557,5.414
		c0.35-0.523,0.875-0.873,1.398-1.047l-6.637-20.259c-0.174,0-0.174,0.174-0.174,0.174L414.129,90.807z M424.084,93.252
		l-6.637-35.103h-0.174l0.35,13.971c0.697,0.175,1.221,0.699,1.221,1.397c0,0.524-0.35,1.048-0.873,1.223L424.084,93.252z
		 M425.131,94.648l0.176-66.713c-0.176,0-0.176,0-0.35,0l-6.287,21.132c1.746,0.698,2.795,2.445,2.795,4.366
		c0,2.096-1.398,4.017-3.318,4.541L425.131,94.648z M421.465,133.42c0,0.873-0.525,1.92-1.223,2.27l6.461,13.623l-1.572-47.678
		v-0.174l-5.588,29.164C420.766,130.975,421.465,132.023,421.465,133.42z"/>
	<path style="fill:#FFFFFF;" d="M520.314,46.448c0,0.873-0.523,1.571-1.398,1.571c-0.697,0-1.221-0.524-1.396-1.048l-17.115,1.223
		c0,1.397-1.223,2.619-2.793,2.619l-1.398,21.132c2.445,0.349,4.191,2.445,4.191,5.064c0,2.445-1.746,4.541-4.191,4.89l1.572,23.75
		c1.396,0,2.619,1.398,2.619,2.971c0,1.396-1.047,2.619-2.445,2.793l1.398,37.898c0.699,0.174,1.047,0.699,1.047,1.396
		c0,0.873-0.523,1.398-1.396,1.398c-0.699,0-1.396-0.525-1.396-1.223l-19.561-3.145c-0.523,2.795-2.969,4.717-5.764,4.717
		c-3.318,0-5.938-2.621-5.938-5.939c0-2.969,2.27-5.414,5.238-5.762l-2.443-38.598c-1.572,0-2.795-1.223-2.795-2.795
		c0-1.57,1.223-2.793,2.619-2.969l0.176-24.973c-1.572,0-2.795-1.223-2.795-2.794s1.223-2.969,2.795-2.969l1.396-13.273
		c-2.445-0.524-4.191-2.445-4.191-4.89l-15.893-1.223c-0.176,1.048-1.049,1.747-2.096,1.747c-1.223,0-2.096-1.048-2.096-2.271
		c0-1.048,0.697-2.095,1.922-2.095l0.523-15.893c-1.398-0.174-2.445-1.397-2.445-2.969s1.223-2.794,2.795-2.794
		c1.57,0,2.793,1.048,2.969,2.62h31.26c0.176-1.397,1.398-2.445,2.969-2.445c1.572,0,2.795,1.222,2.795,2.62l22.529,0.698
		c0.35-2.27,2.096-4.017,4.365-4.017c2.445,0,4.367,1.921,4.367,4.366c0,2.095-1.398,3.842-3.318,4.366l2.096,14.845
		C519.791,45.225,520.314,45.749,520.314,46.448z M466.523,46.797c0.176-1.048,0.525-1.921,1.223-2.62l-16.766-16.94
		c-0.523,0.35-1.047,0.524-1.572,0.524l-0.523,15.893c0.873,0.174,1.572,0.873,1.746,1.921L466.523,46.797z M451.33,26.713
		l16.766,16.941c0.523-0.35,1.223-0.699,1.922-0.874l-2.445-10.653c-1.049,0-1.746-0.698-1.746-1.747c0,0,0,0,0-0.174l-13.973-4.192
		C451.68,26.189,451.506,26.539,451.33,26.713z M483.289,25.316l-31.26-0.174c0,0.174,0,0.174,0,0.174L466,29.682
		c0.35-0.698,0.873-1.048,1.572-1.048c0.697,0,1.223,0.35,1.572,1.048l14.145-4.192C483.289,25.49,483.289,25.49,483.289,25.316z
		 M473.684,43.13l10.654-15.893c-0.35-0.174-0.699-0.698-0.873-1.047l-14.146,4.017c0,0.174,0,0.174,0,0.174
		c0,0.699-0.523,1.397-1.049,1.572l2.271,10.653c0.35-0.175,0.523-0.175,0.873-0.175C472.287,42.431,472.986,42.78,473.684,43.13z
		 M469.842,71.422l-0.174,24.973c0.699,0.176,1.396,0.525,1.92,1.223l9.432-5.588c-0.174-0.523-0.174-1.049-0.174-1.572
		c0-1.047,0.348-1.92,1.223-2.619l-11.354-16.766C470.367,71.248,470.018,71.422,469.842,71.422z M471.238,52.386l-1.396,13.273
		c1.396,0.349,2.445,1.571,2.445,2.969c0,0.175-0.174,0.175-0.174,0.349l18.861,6.112c0.174-0.698,0.697-1.222,1.223-1.746
		l-17.814-21.831c-0.873,0.524-1.92,0.874-2.969,0.874C471.238,52.386,471.238,52.386,471.238,52.386z M472.287,140.756h0.176
		l1.92-19.91c-0.523-0.176-0.873-0.699-0.873-1.223c0-0.699,0.174-1.049,0.699-1.396l-4.367-15.719L472.287,140.756z
		 M470.367,101.984l4.539,16.066c0,0,0,0,0.176,0l8.033-24.275c-0.699-0.174-1.223-0.699-1.746-1.223l-9.432,5.59
		c0.176,0.35,0.35,0.697,0.35,1.221C472.287,100.588,471.414,101.635,470.367,101.984z M490.451,77.01
		c0-0.524,0.174-0.873,0.174-1.222l-18.688-6.113c-0.174,0.349-0.35,0.873-0.699,1.047l11.354,16.766
		c0.523-0.349,1.047-0.523,1.746-0.523s1.396,0.175,1.92,0.698l5.764-7.16C491.148,79.63,490.451,78.407,490.451,77.01z
		 M476.828,142.852l12.748-9.082c-0.35-0.35-0.35-0.873-0.35-1.398c0-0.523,0-1.047,0.35-1.396l-13.795-10.305
		c-0.176,0.176-0.35,0.176-0.699,0.35l-1.922,19.736C474.557,141.104,475.955,141.803,476.828,142.852z M494.643,47.496
		c0.174-0.873,0.697-1.572,1.396-1.921l-8.732-17.814c-0.35,0.174-0.699,0.174-1.049,0.174c-0.523,0-1.047,0-1.396-0.349
		l-10.479,15.892c1.049,0.874,1.746,2.096,1.922,3.493L494.643,47.496z M497.088,50.813c-1.398-0.174-2.271-1.222-2.445-2.619
		l-18.338-0.524c0,1.397-0.523,2.445-1.398,3.318l17.814,21.83c0.699-0.524,1.746-0.873,2.795-0.873L497.088,50.813z
		 M495.516,106.35l-9.432-12.924c-0.523,0.35-1.223,0.525-1.746,0.525c-0.174,0-0.35,0-0.523,0l-8.209,24.449
		c0.176,0,0.35,0.174,0.35,0.174l18.861-9.08c-0.174-0.35-0.174-0.525-0.174-0.873C494.643,107.748,494.99,106.875,495.516,106.35z
		 M492.371,129.578l4.191-18.338c-0.523-0.176-1.047-0.523-1.396-1.047l-18.861,9.08c0,0,0,0.176,0,0.35s0,0.35,0,0.523
		l13.621,10.305c0.525-0.525,1.398-1.049,2.096-1.049C492.197,129.402,492.371,129.578,492.371,129.578z M478.051,146.518
		c0,0.35,0,0.523,0,0.699l19.561,2.969c0.174-0.35,0.348-0.523,0.523-0.699l-5.414-14.32c-0.176,0.174-0.35,0.174-0.699,0.174
		c-0.873,0-1.57-0.348-2.096-0.871l-12.748,8.906C477.701,144.422,478.051,145.471,478.051,146.518z M497.088,105.65l-1.572-23.75
		c-1.049,0-2.096-0.349-2.971-0.873l-5.762,6.985c0.697,0.698,1.047,1.571,1.047,2.444c0,1.049-0.523,1.922-1.223,2.619L496.039,106
		C496.389,105.826,496.738,105.65,497.088,105.65z M498.834,45.399l3.143-5.239c-0.873-0.524-1.572-1.572-1.572-2.794
		c0-0.699,0.35-1.223,0.699-1.747l-12.4-8.907c-0.348,0.35-0.523,0.524-0.697,0.699l8.557,17.813
		c0.35-0.174,0.699-0.174,1.049-0.174C497.959,45.051,498.484,45.225,498.834,45.399z M511.582,26.014l-22.529-0.524
		c0,0.175,0,0.35-0.174,0.699l12.574,8.906c0.697-0.698,1.572-1.222,2.619-1.222c0.873,0,1.572,0.349,2.096,0.873l6.463-6.112
		C511.932,27.935,511.582,27.062,511.582,26.014z M494.99,132.371c0,1.223-0.697,2.098-1.57,2.621l5.238,13.621l-1.396-37.199
		l-4.191,18.338C494.117,130.102,494.99,131.15,494.99,132.371z M500.404,47.496l17.115-1.223v-0.174l-10.652-6.637
		c-0.699,0.874-1.746,1.397-2.795,1.397c-0.699,0-1.047,0-1.572-0.35l-3.143,5.239C499.881,46.099,500.23,46.797,500.404,47.496z
		 M516.297,30.206c-0.174,0-0.174,0-0.35,0c-1.047,0-2.096-0.35-2.969-1.048l-6.287,6.112c0.523,0.525,0.873,1.223,0.873,2.096
		c0,0.524-0.174,1.048-0.35,1.572l10.654,6.461c0.176,0,0.35-0.174,0.523-0.174L516.297,30.206z"/>
</g>
<g>
	<g>
		<path style="fill:none;stroke:#FFFFFF;stroke-width:4;stroke-miterlimit:10;" d="M83.003,134.363c0,1.572-1.397,2.969-2.969,2.969
			c-0.874,0-1.572-0.348-2.096-0.873l-13.272,9.781c0.349,0.697,0.524,1.572,0.524,2.443c0,2.271-1.921,4.367-4.366,4.367
			c-2.096,0-4.017-1.746-4.192-3.842L8.78,151.654c0,0.697-0.699,1.396-1.572,1.396c-0.873,0-1.746-0.699-1.746-1.746
			c0-0.873,0.698-1.396,1.397-1.572l1.222-28.117c-1.747-0.176-2.969-1.572-2.969-3.318s1.397-3.145,2.969-3.318L7.907,71.842
			c-1.397-0.174-2.445-1.396-2.445-2.794s1.047-2.62,2.445-2.794L7.732,27.832c-1.397-0.175-2.445-1.397-2.445-2.794
			c0-1.572,1.223-2.969,2.794-2.969s2.794,1.048,2.969,2.619l37.199-0.524c0.175-0.873,1.048-1.571,1.921-1.571
			c1.048,0,1.921,0.873,1.921,1.921c0,0.174,0,0.524-0.175,0.698l19.036,14.146c1.223-1.571,3.144-2.445,5.065-2.445
			c3.842,0,6.811,2.969,6.811,6.637c0,3.493-2.794,6.287-6.113,6.461l0.524,20.958c0.524,0.175,0.873,0.524,0.873,1.049
			c0,0.523-0.349,0.872-0.873,1.047l2.969,58.33C81.781,131.57,83.003,132.793,83.003,134.363z"/>
		<path style="fill:none;stroke:#FFFFFF;stroke-width:4;stroke-miterlimit:10;" d="M48.948,47.217l-9.78-1.397
			c-0.349,1.222-1.397,2.27-2.794,2.445l0.699,37.374c1.222,0.175,2.445,1.397,2.445,2.793c0,1.398-1.048,2.445-2.445,2.621
			l0.698,39.295c1.223,0.174,2.271,0.873,2.794,1.92l7.859-3.316c0-0.176,0-0.35,0-0.35c0-1.049,0.699-1.748,1.571-1.922
			l2.096-49.947c-1.048-0.176-1.921-1.223-1.921-2.445s0.698-2.096,1.921-2.445l-1.747-23.053
			C49.647,48.614,49.123,48.09,48.948,47.217z"/>
		<path style="fill:none;stroke:#FFFFFF;stroke-width:4;stroke-miterlimit:10;" d="M159.672,150.605
			c0,0.873-0.873,1.746-1.746,1.746c-0.874,0-1.572-0.697-1.572-1.396l-49.948-0.873c-0.35,1.396-1.397,2.445-2.969,2.445
			c-1.572,0-2.969-1.223-2.969-2.969c0-1.396,1.222-2.621,2.62-2.795l-1.397-32.658c-0.524-0.174-1.047-0.699-1.047-1.396
			c0-0.699,0.523-1.223,1.047-1.398l1.921-42.088c-1.746-0.35-2.969-1.746-2.969-3.493c0-1.921,1.397-3.493,3.144-3.668
			l-1.223-35.801c-1.222,0-2.096-1.048-2.096-2.271s1.048-2.271,2.271-2.271s2.27,0.874,2.27,2.096l46.106,0.698
			c0.175-1.571,1.571-2.969,3.318-2.969c1.921,0,3.318,1.572,3.318,3.318c0,1.746-1.223,3.144-2.795,3.493l1.224,16.591
			c0.698,0.175,1.222,0.699,1.222,1.571c0,0.699-0.698,1.397-1.571,1.397c-0.524,0-1.223-0.524-1.397-1.048l-19.734,1.397
			c0,2.095-1.572,3.667-3.493,4.017l1.747,19.735c0.873,0,1.571,0.698,1.746,1.571l15.368,1.397c0.35-1.223,1.397-2.271,2.795-2.271
			c1.746,0,2.969,1.396,2.969,2.969c0,1.397-1.048,2.62-2.271,2.795l1.048,16.766c0.698,0,1.223,0.699,1.223,1.396
			c0,0.873-0.699,1.396-1.397,1.396s-1.222-0.348-1.397-1.047l-18.687,1.047c0,2.098-1.746,3.668-3.668,4.018l0.874,22.006
			c1.571,0,2.794,1.396,2.794,2.969l17.115,2.27c0.523-1.92,2.096-3.318,4.191-3.318c2.271,0,4.191,1.748,4.191,4.193
			c0,1.92-1.572,3.666-3.493,4.016l1.747,14.67C158.974,149.033,159.672,149.732,159.672,150.605z"/>
		<path style="fill:none;stroke:#FFFFFF;stroke-width:4;stroke-miterlimit:10;" d="M335.016,150.605
			c0,0.873-0.873,1.746-1.746,1.746s-1.572-0.697-1.572-1.396l-49.947-0.873c-0.35,1.396-1.396,2.445-2.969,2.445
			s-2.969-1.223-2.969-2.969c0-1.396,1.223-2.621,2.619-2.795l-1.396-32.658c-0.525-0.174-1.049-0.699-1.049-1.396
			c0-0.699,0.523-1.223,1.049-1.398l1.92-42.088c-1.746-0.35-2.969-1.746-2.969-3.493c0-1.921,1.398-3.493,3.145-3.668
			l-1.223-35.801c-1.223,0-2.096-1.048-2.096-2.271s1.047-2.271,2.27-2.271s2.271,0.874,2.271,2.096l46.105,0.698
			c0.174-1.571,1.572-2.969,3.318-2.969c1.92,0,3.318,1.572,3.318,3.318c0,1.746-1.223,3.144-2.795,3.493l1.223,16.591
			c0.699,0.175,1.223,0.699,1.223,1.571c0,0.699-0.699,1.397-1.572,1.397c-0.523,0-1.223-0.524-1.396-1.048l-19.734,1.397
			c0,2.095-1.572,3.667-3.494,4.017l1.748,19.735c0.873,0,1.57,0.698,1.746,1.571l15.367,1.397c0.35-1.223,1.398-2.271,2.795-2.271
			c1.746,0,2.969,1.396,2.969,2.969c0,1.397-1.047,2.62-2.27,2.795l1.047,16.766c0.699,0,1.223,0.699,1.223,1.396
			c0,0.873-0.699,1.396-1.396,1.396c-0.699,0-1.223-0.348-1.398-1.047l-18.686,1.047c0,2.098-1.746,3.668-3.668,4.018l0.873,22.006
			c1.572,0,2.795,1.396,2.795,2.969l17.115,2.27c0.523-1.92,2.096-3.318,4.191-3.318c2.27,0,4.191,1.748,4.191,4.193
			c0,1.92-1.572,3.666-3.494,4.016l1.748,14.67C334.318,149.033,335.016,149.732,335.016,150.605z"/>
		<path style="fill:none;stroke:#FFFFFF;stroke-width:4;stroke-miterlimit:10;" d="M255.727,105.898l-1.049,24.973
			c0.699,0.174,1.398,0.873,1.398,1.746c0,1.223-0.875,2.096-1.922,2.096c-0.35,0-0.697-0.174-1.047-0.35l-11.352,11.527
			c0.523,0.523,0.872,1.223,0.872,2.096c0,1.746-1.571,3.318-3.317,3.318c-1.397,0-2.62-0.873-3.144-2.096l-17.814,4.715
			c0,0,0,0,0,0.176c0,1.047-0.872,1.92-1.921,1.92c-1.048,0-1.921-0.873-1.921-1.92c0-0.176,0-0.176,0-0.35l-18.163-5.588
			c-0.523,1.047-1.746,1.92-2.969,1.92c-1.746,0-3.318-1.396-3.318-3.145c0-1.047,0.524-1.92,1.397-2.619l-9.78-15.893
			c-0.35,0-0.523,0-0.873,0c-1.048,0-2.096-0.873-2.096-2.096c0-0.873,0.698-1.746,1.746-1.92l-1.746-34.406
			c-0.699,0-1.397-0.699-1.397-1.57c0-0.699,0.698-1.397,1.397-1.572l0.524-35.453c-1.048-0.174-1.922-1.222-1.922-2.27
			c0-1.223,1.048-2.271,2.271-2.271c0.175,0,0.35,0,0.524,0l4.54-10.478c-0.873-0.525-1.396-1.397-1.396-2.445
			c0-1.397,1.223-2.794,2.794-2.794c1.048,0,1.921,0.698,2.271,1.397l24.8-11.003c0-0.174-0.176-0.524-0.176-0.698
			c0-1.572,1.224-2.794,2.795-2.794c1.397,0,2.619,1.222,2.619,2.794l17.814,2.62c0.174-0.874,1.048-1.572,2.095-1.572
			c1.224,0,2.271,1.048,2.271,2.27c0,0.524-0.349,1.048-0.698,1.572l8.383,10.478c0.874-0.524,1.746-0.873,2.795-0.873
			c2.619,0,4.715,2.096,4.715,4.715c0,2.096-1.746,4.017-3.842,4.541l4.191,30.388c1.047,0,1.746,0.874,1.746,1.747
			c0,1.047-0.699,1.921-1.746,1.921c-1.049,0-1.748-0.699-1.922-1.572l-23.228-1.571c-0.349,1.746-1.921,3.144-3.667,3.144
			c-2.096,0-3.668-1.572-3.668-3.668c0-1.747,1.224-3.318,2.97-3.668l-1.572-24.624c-0.873-0.175-1.397-0.699-1.397-1.572
			c0-0.35,0-0.524,0.176-0.699l-4.891-4.541c-0.524,0.349-1.048,0.524-1.746,0.524c-0.524,0-0.874,0-1.223-0.175l-4.891,7.336
			c0.35,0.349,0.699,0.873,0.699,1.396c0,1.048-0.873,1.747-1.747,1.921l-2.095,26.895c2.095,0.35,3.842,2.271,3.842,4.541
			s-1.747,4.191-3.842,4.541l3.317,41.74c0.699,0,1.223,0.523,1.223,1.223c0,0.174-0.175,0.174-0.175,0.35l5.414,3.316
			c0.524-0.523,1.048-0.873,1.747-0.873c0.349,0,0.698,0.176,1.048,0.35l3.318-5.588c-0.35-0.35-0.524-0.873-0.524-1.223
			c0-0.873,0.698-1.572,1.396-1.746l0.176-20.957c-0.699-0.176-1.224-0.699-1.224-1.572s0.699-1.572,1.572-1.572
			s1.397,0.523,1.572,1.396l26.022,0.875c0.174-1.225,1.396-2.271,2.793-2.271c1.398,0,2.795,1.223,2.795,2.795
			C258.346,104.5,257.123,105.723,255.727,105.898z"/>
		<path style="fill:none;stroke:#FFFFFF;stroke-width:4;stroke-miterlimit:10;" d="M428.625,151.479
			c0,0.873-0.699,1.572-1.572,1.572c-0.699,0-1.223-0.523-1.396-1.396l-20.783-1.398c-0.174,1.572-1.572,2.795-3.318,2.795
			c-1.92,0-3.492-1.572-3.492-3.492c0-1.396,0.873-2.621,1.92-3.145l-8.383-23.227c-0.174,0-0.174,0-0.35,0
			c-0.873,0-1.57-0.699-1.57-1.746c0-0.525,0.35-1.049,0.873-1.398l-8.559-26.021c-0.348,0-0.697,0-1.047,0l-2.795,28.99
			c1.746,0.35,2.969,1.746,2.969,3.668s-1.223,3.318-3.143,3.668l1.223,17.988c1.047,0,1.92,1.047,1.92,2.096
			c0,1.223-1.047,2.27-2.27,2.27c-1.049,0-2.096-1.047-2.096-2.27l-12.4-2.096c-0.697,2.619-2.969,4.541-5.764,4.541
			c-3.318,0-5.938-2.621-5.938-5.939c0-2.969,2.445-5.412,5.414-5.762l-2.619-61.824c-1.396,0-2.621-1.223-2.621-2.795
			c0-1.396,1.225-2.619,2.445-2.794l-1.047-48.026c-0.873-0.175-1.398-0.874-1.398-1.747c0-1.048,0.699-1.921,1.748-1.921
			c1.047,0,1.746,0.699,1.746,1.747l17.988,1.746c0.35-1.746,1.92-3.143,4.018-3.143c2.094,0,3.842,1.746,3.842,4.017
			c0,1.572-0.873,2.969-2.096,3.493l19.734,51.345c0.174-0.175,0.35-0.175,0.35-0.175l2.793-52.568
			c-1.57-0.174-2.793-1.571-2.793-3.143c0-1.747,1.396-3.144,3.143-3.144s2.969,1.223,3.145,2.794h16.066
			c0.174-1.397,1.398-2.619,3.145-2.619c1.57,0,2.969,1.397,2.969,2.969s-1.223,2.969-2.795,3.143v67.064
			c1.572,0.174,2.969,1.572,2.969,3.318c0,1.57-1.396,2.969-2.969,3.143l1.572,48.027
			C428.1,150.082,428.625,150.781,428.625,151.479z"/>
		<path style="fill:none;stroke:#FFFFFF;stroke-width:4;stroke-miterlimit:10;" d="M520.314,47.043c0,0.873-0.523,1.571-1.398,1.571
			c-0.697,0-1.221-0.524-1.396-1.047l-17.115,1.222c0,1.397-1.223,2.619-2.793,2.619l-1.398,21.133
			c2.445,0.349,4.191,2.444,4.191,5.064c0,2.444-1.746,4.541-4.191,4.889l1.572,23.752c1.396,0,2.619,1.398,2.619,2.969
			c0,1.398-1.047,2.621-2.445,2.795l1.398,37.898c0.699,0.174,1.047,0.697,1.047,1.396c0,0.873-0.523,1.396-1.396,1.396
			c-0.699,0-1.396-0.523-1.396-1.223l-19.561-3.143c-0.523,2.795-2.969,4.715-5.764,4.715c-3.318,0-5.938-2.619-5.938-5.938
			c0-2.969,2.27-5.414,5.238-5.764l-2.443-38.596c-1.572,0-2.795-1.223-2.795-2.795s1.223-2.793,2.619-2.969l0.176-24.974
			c-1.572,0-2.795-1.223-2.795-2.794c0-1.572,1.223-2.969,2.795-2.969l1.396-13.273c-2.445-0.524-4.191-2.445-4.191-4.89
			l-15.893-1.223c-0.176,1.048-1.049,1.747-2.096,1.747c-1.223,0-2.096-1.047-2.096-2.271c0-1.048,0.697-2.095,1.922-2.095
			l0.523-15.893c-1.398-0.174-2.445-1.397-2.445-2.969s1.223-2.794,2.795-2.794c1.57,0,2.793,1.048,2.969,2.62h31.26
			c0.176-1.397,1.398-2.445,2.969-2.445c1.572,0,2.795,1.223,2.795,2.62l22.529,0.698c0.35-2.27,2.096-4.017,4.365-4.017
			c2.445,0,4.367,1.921,4.367,4.366c0,2.095-1.398,3.842-3.318,4.366l2.096,14.845C519.791,45.82,520.314,46.344,520.314,47.043z"/>
	</g>
</g>
</svg>
